/* XPM */
const char * add_class_xpm[] = {
"27 22 5 1",
"  c grey s BottomShadow",
". c white s Background",
"X c red s Red",
"o c lightgrey s TopShadow",
"O c black s Foreground",
"            ...............",
" .......... ...           .",
" .            . ......... .",
" . .......... . .XoXoXoX. .",
"   .XoXoXoXo. . ......... .",
" . .......... .           .",
" .        OOOOOOO........ .",
" . .......OoooooOoooooo.. .",
"   .......OoooooO........ .",
".. .ooooo.OoooooO.ooooo.. .",
".. .......OoooooO........ .",
"..        OoooooO         .",
"..........OoooooO........ .",
"..........OoooooO.oooooo. .",
"......OOOOOoooooOOOOO.... .",
".......OoooooooooooO..... .",
"........OoooooooooO       .",
".........OoooooooO.........",
"..........OoooooO..........",
"...........OoooO...........",
"............OoO............",
".............O............."};
