/* XPM */
static const char * comment_xpm[] = {
"48 48 320 2",
"  	c grey s Background",
". 	c #000000",
"+ 	c #1C1C1C",
"@ 	c #393939",
"# 	c #646464",
"$ 	c #737373",
"% 	c #ACACAC",
"& 	c #BBBBBB",
"* 	c #E6E6E6",
"= 	c #E7E7E7",
"- 	c #E8E8E8",
"; 	c #1D1D1D",
"> 	c #565656",
", 	c #9E9E9E",
"' 	c #E9E9E9",
") 	c #929292",
"! 	c #EAEAEA",
"~ 	c #EBEBEB",
"{ 	c #3B3B3B",
"] 	c #D7D7D7",
"^ 	c #D2D2D2",
"/ 	c #BFBFBF",
"( 	c #B5B5B5",
"_ 	c #DCDCDC",
": 	c #ECECEC",
"< 	c #EDEDED",
"[ 	c #B2B2B2",
"} 	c #C4C4C4",
"| 	c #CDCDCD",
"1 	c #D3D3D3",
"2 	c #CACACA",
"3 	c #C0C0C0",
"4 	c #D0D0D0",
"5 	c #BEBEBE",
"6 	c #848484",
"7 	c #676767",
"8 	c #EEEEEE",
"9 	c #EFEFEF",
"0 	c #4A4A4A",
"a 	c #A7A7A7",
"b 	c #C1C1C1",
"c 	c #9A9A9A",
"d 	c #6F6F6F",
"e 	c #3F3F3F",
"f 	c #494949",
"g 	c #757575",
"h 	c #A2A2A2",
"i 	c #F0F0F0",
"j 	c #8F8F8F",
"k 	c #AEAEAE",
"l 	c #747474",
"m 	c #3A3A3A",
"n 	c #0E0E0E",
"o 	c #484848",
"p 	c #828282",
"q 	c #BDBDBD",
"r 	c #C3C3C3",
"s 	c #F1F1F1",
"t 	c #F2F2F2",
"u 	c #6A6A6A",
"v 	c #0F0F0F",
"w 	c #ADADAD",
"x 	c #474747",
"y 	c #818181",
"z 	c #C2C2C2",
"A 	c #1E1E1E",
"B 	c #C5C5C5",
"C 	c #F3F3F3",
"D 	c #E5E5E5",
"E 	c #101010",
"F 	c #C9C9C9",
"G 	c #C6C6C6",
"H 	c #F5F5F5",
"I 	c #F6F6F6",
"J 	c #7B7B7B",
"K 	c #2B2B2B",
"L 	c #C8C8C8",
"M 	c #F7F7F7",
"N 	c #F8F8F8",
"O 	c #1F1F1F",
"P 	c #B6B6B6",
"Q 	c #F9F9F9",
"R 	c #9C9C9C",
"S 	c #B1B1B1",
"T 	c #DDDDDD",
"U 	c #D4D4D4",
"V 	c #F4F4F4",
"W 	c #C7C7C7",
"X 	c #CBCBCB",
"Y 	c #FBFBFB",
"Z 	c #A8A8A8",
"` 	c #BCBCBC",
" .	c #BABABA",
"..	c #D1D1D1",
"+.	c #CFCFCF",
"@.	c #E3E3E3",
"#.	c #CECECE",
"$.	c #B9B9B9",
"%.	c #A9A9A9",
"&.	c #B4B4B4",
"*.	c #E2E2E2",
"=.	c #CCCCCC",
"-.	c #4F4F4F",
";.	c #E0E0E0",
">.	c #B8B8B8",
",.	c #B3B3B3",
"'.	c #DFDFDF",
").	c #AAAAAA",
"!.	c #AFAFAF",
"~.	c #B7B7B7",
"{.	c #DEDEDE",
"].	c #FAFAFA",
"^.	c #D8D8D8",
"/.	c #DBDBDB",
"(.	c #D9D9D9",
"_.	c #FCFCFC",
":.	c #FDFDFD",
"<.	c #DADADA",
"[.	c #FEFEFE",
"}.	c #131317",
"|.	c #26272F",
"1.	c #09090B",
"2.	c #A3A3A3",
"3.	c #FFFFFF",
"4.	c #111111",
"5.	c #14151B",
"6.	c #9EA3CB",
"7.	c #9DA2C9",
"8.	c #8A6D53",
"9.	c #896B4B",
"0.	c #5A4738",
"a.	c #393A46",
"b.	c #2C2C2C",
"c.	c #939393",
"d.	c #E4E4E4",
"e.	c #858AB0",
"f.	c #9891A7",
"g.	c #A98A6B",
"h.	c #A68868",
"i.	c #8C8291",
"j.	c #9499C0",
"k.	c #969BBD",
"l.	c #7C7F99",
"m.	c #18181A",
"n.	c #595959",
"o.	c #D6D6D6",
"p.	c #EAEEF7",
"q.	c #ECF0F9",
"r.	c #CDD9F4",
"s.	c #0A0B0E",
"t.	c #907748",
"u.	c #C3A789",
"v.	c #9F8166",
"w.	c #BABEDD",
"x.	c #999EC9",
"y.	c #848ABC",
"z.	c #8288B7",
"A.	c #898EB7",
"B.	c #9498BA",
"C.	c #696B81",
"D.	c #2F313B",
"E.	c #626262",
"F.	c #919191",
"G.	c #E8EBF5",
"H.	c #BACAEE",
"I.	c #CAD6F1",
"J.	c #6F92E4",
"K.	c #7E9EE6",
"L.	c #7F9EE7",
"M.	c #BECEF2",
"N.	c #EDF1FA",
"O.	c #AF9313",
"P.	c #DBD180",
"Q.	c #968370",
"R.	c #D4D6E8",
"S.	c #D7D9E9",
"T.	c #9B9FC5",
"U.	c #7379AC",
"V.	c #6C72A6",
"W.	c #757BA9",
"X.	c #8388B0",
"Y.	c #8F93B1",
"Z.	c #4A3B30",
"`.	c #0F0B07",
" +	c #4C4C4C",
".+	c #999DA6",
"++	c #CAD5F1",
"@+	c #8DA9E8",
"#+	c #BCCCF0",
"$+	c #EBEFF8",
"%+	c #332900",
"&+	c #EFD239",
"*+	c #938248",
"=+	c #8186AB",
"-+	c #CDD0E3",
";+	c #EDEDF4",
">+	c #A1A5C5",
",+	c #6B71A3",
"'+	c #5B6197",
")+	c #616084",
"!+	c #8A6746",
"~+	c #896746",
"{+	c #61472E",
"]+	c #322A25",
"^+	c #0F131C",
"/+	c #203B7B",
"(+	c #8DA4DB",
"_+	c #2F2F2F",
":+	c #221B00",
"<+	c #9F8309",
"[+	c #FFD313",
"}+	c #BF9900",
"|+	c #6D6242",
"1+	c #7579A0",
"2+	c #BEC0D7",
"3+	c #F5F5F9",
"4+	c #F4F5F8",
"5+	c #B6B8D0",
"6+	c #6E5B5A",
"7+	c #AE8E70",
"8+	c #A58566",
"9+	c #8F6E4D",
"0+	c #9996AD",
"a+	c #8589A5",
"b+	c #4C4E5E",
"c+	c #19191B",
"d+	c #5D5D5D",
"e+	c #241D00",
"f+	c #7F6600",
"g+	c #EFC000",
"h+	c #CFA600",
"i+	c #796828",
"j+	c #6C6A71",
"k+	c #979BBC",
"l+	c #B7B7C9",
"m+	c #9D7F65",
"n+	c #CDAF94",
"o+	c #C1A387",
"p+	c #917663",
"q+	c #ACB1DA",
"r+	c #ACB1D7",
"s+	c #A5A9CC",
"t+	c #9A9EBE",
"u+	c #5F6276",
"v+	c #1C1D23",
"w+	c #5F4C00",
"x+	c #FFD61C",
"y+	c #E9C525",
"z+	c #484142",
"A+	c #A5896C",
"B+	c #D2B59A",
"C+	c #C8AA8F",
"D+	c #AA9FA4",
"E+	c #DBDDEF",
"F+	c #BFC3E1",
"G+	c #B2B7DB",
"H+	c #B5B9DC",
"I+	c #ABB0D0",
"J+	c #9FA3C3",
"K+	c #72758D",
"L+	c #443600",
"M+	c #9F8000",
"N+	c #3D3226",
"O+	c #6F5944",
"P+	c #BEC0D9",
"Q+	c #F0F1F8",
"R+	c #D1D4E9",
"S+	c #BCC1DF",
"T+	c #B3B7D5",
"U+	c #A2A6C5",
"V+	c #15161B",
"W+	c #63667B",
"X+	c #B1B5D2",
"Y+	c #DFE1EF",
"Z+	c #F6F6FA",
"`+	c #FAFAFC",
" @	c #E5E7F2",
".@	c #C9CCE4",
"+@	c #BEC2DE",
"@@	c #B9BDD8",
"#@	c #AAAECA",
"$@	c #393A44",
"%@	c #7F8297",
"&@	c #D0D3E7",
"*@	c #E6E7F2",
"=@	c #FAFBFC",
"-@	c #F7F7FA",
";@	c #DDDFED",
">@	c #CDD0E5",
",@	c #C9CCE1",
"'@	c #B0B3CE",
")@	c #0C0C0E",
"!@	c #474853",
"~@	c #838598",
"{@	c #D9DBEB",
"]@	c #EEEFF6",
"^@	c #E3E5F0",
"/@	c #D7D9E8",
"(@	c #B6B9D1",
"_@	c #0D0D0F",
":@	c #4C4D55",
"<@	c #9294A0",
"[@	c #E6E8F2",
"}@	c #F4F5F9",
"|@	c #F9FAFC",
"1@	c #E7E8F0",
"2@	c #BCBED4",
"3@	c #56586A",
"4@	c #0A0A0C",
"5@	c #0E0E0F",
"6@	c #46464A",
"7@	c #909197",
"8@	c #D5D6DA",
"9@	c #FCFCFD",
"0@	c #E5E6EE",
"a@	c #A8ABC1",
"b@	c #2F3038",
"c@	c #1E1F1F",
"d@	c #5E5E5F",
"e@	c #262626",
"                                                                                                ",
"                                                                                                ",
"                                                                                                ",
"                                                                                                ",
"                                                                                                ",
"                                                                                                ",
"                                                                                                ",
"                                              . . . . . . . .                                   ",
"                        . . . . . . + @ @ # $ $ % % & * = - ;                                   ",
"                . @ > $ $ , % % * * * * * * * * * * = - - ' ) .                                 ",
"                . % * * * * * * * * * * * * * = = - ' ' ! ! ~ {                                 ",
"                  @ * * * ] ^ / / ( % % _ = = - ' ' ! ~ ~ : < [ .                               ",
"                  . , * * } / | ^ ] 1 1 2 3 4 ' 5 6 7 3 < < 8 9 0                               ",
"                    + * * * % a % % & b c d e ; f g h ; b 9 9 i 1 .                             ",
"                    . j * * * = k l m n o p q ! ! ~ : b ; r s s t u                             ",
"                      v w $ @ + x y & = - ' ' ! ~ : < 8 z A B C C D E                           ",
"                  . . + > j F * * * = - - ' ! ~ : < 8 9 i r A G H I J .                         ",
"          . . K > j F * * * * * * = = - ' ! ~ : < 8 9 9 i s } A L M N O                         ",
"        . j ] * * * * * * * ^ / % P - ' ! ~ : < 8 8 9 i s t C G A 2 Q R .                       ",
"          K ] * * * _ } S a ( F T U b w q : < < 8 9 i s t C V H W O X Y e                       ",
"            K ] * * F F _ ^ / % Z ` 4 * : : < 8 9 D 4  ...C V H I F O | 5 .                     ",
"              K ] * * ^ a & +.@.' ! ~ ~ : @.#.$.%.&.X *.*.=.9 I M N 2 O +.-.                    ",
"                K ] * * * = - ' ! ;.=.>.Z ,.F '.;.X &.).& ^ I M N Q Q X O !..                   ",
"                  K ] * = - +.~.Z [ L T {.F &.%. ...- T W i M N N Q ].Y | O e                   ",
"                    K ^.- - X /./.W ,.%.$.+.D /.B !.).b (.M M N Q ].Y _.:.#.v .                 ",
"                      K <.' ! =.,.L {.(.} k %.3 ] 8 H I I M N Q ].Y _.:.[.[.+.v .               ",
"          . }.|.1.. . . K /.~ : = k 2.$.+.: t C V H H I M N Q ].Y _.:.:.[.3.3.+.4.              ",
"          5.6.7.8.9.0.a.1.b.c.< < d.9 i s t C V V {.W <.N Q ].Y _._.:.[.3.3.3.3.+.4.            ",
"          . e.f.g.h.i.j.k.l.a.m.n.,.i s : o.3 !.).z <.t Q p.Y q.r.:.[.3.3.3.3.3.3.+.4.          ",
"            s.t.u.v.w.x.y.z.A.B.C.D.A E.F.3 ^.9 I G.H.I.J.K.L.M.N.[.3.3.3.3.3.3.3.3.+.4.        ",
"              O.P.Q.R.3.S.T.U.V.W.X.Y.Z.`. +.+I M ++@+#+$+Y _.:.[.3.3.3.3.3.3.3.9 !.d O         ",
"              %+&+&+*+=+-+3.;+>+,+'+)+!+~+{+]+^+/+(+Q ].Y _.:.[.[.3.3.3.9 !.d _+. .             ",
"                :+<+[+}+|+1+2+3+4+5+6+7+8+9+0+a+b+c+d+/._.:.[.[.9 !.d _+. .                     ",
"                  . e+f+g+h+i+j+k+l+m+n+o+p+q+r+s+t+u+v+-., d _+. .                             ",
"                        . w+}+x+y+z+A+B+C+D+E+F+G+H+I+J+K+|..                                   ",
"                            . L+M+:+. N+O+P+Q+3.Q+R+S+w.T+U+l.a..                               ",
"                                        . V+W+X+Y+Z+`+ @.@+@@@#@a+a..                           ",
"                                            . . $@%@&@*@=@-@;@>@,@'@a+|..                       ",
"                                                  . )@!@~@{@]@3.]@^@/@(@K+v+.                   ",
"                                                        . _@:@<@[@}@|@}@1@2@3@4@                ",
"                                                              . 5@6@7@8@`+9@0@a@b@.             ",
"                                                                    . . c@d@j / % e@            ",
"                                                                            . . . .             ",
"                                                                                                ",
"                                                                                                ",
"                                                                                                ",
"                                                                                                ",
"                                                                                                "};
