/* XPM */
static const char * commit_xpm[] = {
"32 32 389 2",
"  	c grey s Background",
". 	c #626262",
"+ 	c #686868",
"@ 	c #6E6E6E",
"# 	c #646464",
"$ 	c #898989",
"% 	c #A2A2A2",
"& 	c #B3B3B3",
"* 	c #BDBDBD",
"= 	c #C5C5C5",
"- 	c #CBCBCB",
"; 	c #CCCCCC",
"> 	c #C9C9C9",
", 	c #C4C4C4",
"' 	c #C3C3C3",
") 	c #C2C2C2",
"! 	c #BCBCBC",
"~ 	c #B5B5B5",
"{ 	c #ADADAD",
"] 	c #A6A6A6",
"^ 	c #9E9E9E",
"/ 	c #8A8A8A",
"( 	c #656565",
"_ 	c #8D8D8D",
": 	c #BEBEBE",
"< 	c #D8D8D8",
"[ 	c #D2D2D2",
"} 	c #B9B9B9",
"| 	c #A9A9A9",
"1 	c #999999",
"2 	c #969696",
"3 	c #989898",
"4 	c #9C9C9C",
"5 	c #9F9F9F",
"6 	c #979797",
"7 	c #909090",
"8 	c #9A9A9A",
"9 	c #AEAEAE",
"0 	c #A7A7A7",
"a 	c #8F8F8F",
"b 	c #7E7E7E",
"c 	c #CFCFCF",
"d 	c #B4B4B4",
"e 	c #878787",
"f 	c #828282",
"g 	c #868686",
"h 	c #8B8B8B",
"i 	c #949494",
"j 	c #9D9D9D",
"k 	c #A1A1A1",
"l 	c #A5A5A5",
"m 	c #B0B0B0",
"n 	c #B1B1B1",
"o 	c #959595",
"p 	c #B2B2B2",
"q 	c #797979",
"r 	c #E1E1E1",
"s 	c #838383",
"t 	c #888888",
"u 	c #8C8C8C",
"v 	c #919191",
"w 	c #A4A4A4",
"x 	c #A8A8A8",
"y 	c #ACACAC",
"z 	c #B7B7B7",
"A 	c #BABABA",
"B 	c #929292",
"C 	c #AFAFAF",
"D 	c #CECECE",
"E 	c #858585",
"F 	c #848484",
"G 	c #8E8E8E",
"H 	c #AAAAAA",
"I 	c #BBBBBB",
"J 	c #BFBFBF",
"K 	c #A3A3A3",
"L 	c #DCDCDC",
"M 	c #939393",
"N 	c #ABABAB",
"O 	c #C0C0C0",
"P 	c #CDCDCD",
"Q 	c #D7D7D7",
"R 	c #B6B6B6",
"S 	c #C8C8C8",
"T 	c #C7C7C7",
"U 	c #D3D3D3",
"V 	c #EAEAEA",
"W 	c #F6F6F6",
"X 	c #D6D6D6",
"Y 	c #F0F0F0",
"Z 	c #FBFBFB",
"` 	c #FAFAFA",
" .	c #F1F1F1",
"..	c #E2E2E2",
"+.	c #DBDBDB",
"@.	c #DADADA",
"#.	c #EFEFEF",
"$.	c #F7F7F7",
"%.	c #F3F3F3",
"&.	c #CCD0D5",
"*.	c #5A9EF7",
"=.	c #2372FA",
"-.	c #71A2D5",
";.	c #E8E8E8",
">.	c #EBEBEB",
",.	c #F4F4F4",
"'.	c #F2F2F2",
").	c #C6C6C6",
"!.	c #C2C6CB",
"~.	c #327AE4",
"{.	c #6789FE",
"].	c #B6C4FF",
"^.	c #2766FA",
"/.	c #79ACE6",
"(.	c #767676",
"_.	c #C4C8CD",
":.	c #367AE5",
"<.	c #6A8AFD",
"[.	c #DFE4FF",
"}.	c #DFE5FF",
"|.	c #CBD6FF",
"1.	c #276AF8",
"2.	c #6F9FD9",
"3.	c #D5D5D5",
"4.	c #E7E7E7",
"5.	c #3676E1",
"6.	c #6284FD",
"7.	c #C8D2FF",
"8.	c #C7D3FF",
"9.	c #C7D4FF",
"0.	c #C7D5FF",
"a.	c #B7CBFF",
"b.	c #256EF6",
"c.	c #6A97D1",
"d.	c #C1C1C1",
"e.	c #BEC2C7",
"f.	c #3672DE",
"g.	c #5A7DFC",
"h.	c #B0C1FF",
"i.	c #B0C2FF",
"j.	c #B0C4FF",
"k.	c #B0C5FF",
"l.	c #B0C7FF",
"m.	c #B0C8FF",
"n.	c #A3C2FF",
"o.	c #2372F5",
"p.	c #7AA4DF",
"q.	c #B8B8B8",
"r.	c #DDDDDD",
"s.	c #7D7D7D",
"t.	c #7A7A7A",
"u.	c #818181",
"v.	c #93969B",
"w.	c #2860CC",
"x.	c #5177FC",
"y.	c #99B0FF",
"z.	c #99B2FF",
"A.	c #99B4FF",
"B.	c #99B6FF",
"C.	c #99B8FF",
"D.	c #99BAFF",
"E.	c #98BCFF",
"F.	c #98BEFF",
"G.	c #8FBAFF",
"H.	c #2076F4",
"I.	c #769DD8",
"J.	c #E0E0E0",
"K.	c #DEDEDE",
"L.	c #D9D9D9",
"M.	c #9C9FA4",
"N.	c #285CCA",
"O.	c #4771FB",
"P.	c #82A0FF",
"Q.	c #82A2FF",
"R.	c #82A5FF",
"S.	c #82A7FF",
"T.	c #82AAFF",
"U.	c #81ACFF",
"V.	c #81AEFF",
"W.	c #81B1FF",
"X.	c #81B4FF",
"Y.	c #81B6FF",
"Z.	c #7AB4FF",
"`.	c #1D7BF2",
" +	c #6F93CF",
".+	c #7F7F7F",
"++	c #CACACA",
"@+	c #C2C5CA",
"#+	c #3666D3",
"$+	c #3C6AFB",
"%+	c #6B90FF",
"&+	c #6B93FF",
"*+	c #6B96FF",
"=+	c #6B99FF",
"-+	c #6A9CFF",
";+	c #6A9FFF",
">+	c #6AA2FF",
",+	c #6AA5FF",
"'+	c #6AA8FF",
")+	c #6AABFF",
"!+	c #6AAEFF",
"~+	c #6AB1FF",
"{+	c #64B1FF",
"]+	c #1980F1",
"^+	c #5C7DB9",
"/+	c #C4C6CC",
"(+	c #3663D1",
"_+	c #1A52FA",
":+	c #5481FF",
"<+	c #5485FF",
"[+	c #5488FF",
"}+	c #548BFF",
"|+	c #538FFF",
"1+	c #5392FF",
"2+	c #5396FF",
"3+	c #5399FF",
"4+	c #539CFF",
"5+	c #53A0FF",
"6+	c #52A3FF",
"7+	c #52A7FF",
"8+	c #52AAFF",
"9+	c #52AEFF",
"0+	c #4FB0FF",
"a+	c #1484F0",
"b+	c #4E6DA9",
"c+	c #A0A0A0",
"d+	c #C6C7CB",
"e+	c #365FCD",
"f+	c #0042FA",
"g+	c #0048FF",
"h+	c #1057FF",
"i+	c #3475FF",
"j+	c #3C7EFF",
"k+	c #3C82FF",
"l+	c #3C86FF",
"m+	c #3C8AFF",
"n+	c #3C8EFF",
"o+	c #3C92FF",
"p+	c #3C96FF",
"q+	c #3B9AFF",
"r+	c #3B9EFF",
"s+	c #3BA2FF",
"t+	c #3BA6FF",
"u+	c #39A9FF",
"v+	c #22A4FF",
"w+	c #049DFF",
"x+	c #0085EE",
"y+	c #0B3FAF",
"z+	c #51639A",
"A+	c #0044F7",
"B+	c #004BFF",
"C+	c #0050FF",
"D+	c #0055FF",
"E+	c #005BFF",
"F+	c #0F69FF",
"G+	c #237AFF",
"H+	c #2B83FF",
"I+	c #2B87FF",
"J+	c #2B8BFF",
"K+	c #2B90FF",
"L+	c #2B94FF",
"M+	c #2B98FF",
"N+	c #2B9DFF",
"O+	c #269FFF",
"P+	c #159DFF",
"Q+	c #049BFF",
"R+	c #009EFF",
"S+	c #00A4FF",
"T+	c #00A9FF",
"U+	c #0074DF",
"V+	c #D4D4D4",
"W+	c #D1D1D1",
"X+	c #7683B1",
"Y+	c #0043EB",
"Z+	c #0054FF",
"`+	c #0059FF",
" @	c #005EFF",
".@	c #0063FF",
"+@	c #0069FF",
"@@	c #006EFF",
"#@	c #0576FF",
"$@	c #1181FF",
"%@	c #1688FF",
"&@	c #198FFF",
"*@	c #1792FF",
"=@	c #1295FF",
"-@	c #0896FF",
";@	c #0097FF",
">@	c #009DFF",
",@	c #00A2FF",
"'@	c #00A7FF",
")@	c #00ACFF",
"!@	c #01B0FE",
"~@	c #0163D1",
"{@	c #828DC0",
"]@	c #4A5FAD",
"^@	c #4056A4",
"/@	c #4156A4",
"(@	c #0947CE",
"_@	c #0071FF",
":@	c #0076FF",
"<@	c #007CFF",
"[@	c #0081FF",
"}@	c #0086FF",
"|@	c #008BFF",
"1@	c #0090FF",
"2@	c #0096FF",
"3@	c #009BFF",
"4@	c #00A0FF",
"5@	c #00A5FF",
"6@	c #1D48B1",
"7@	c #405BA4",
"8@	c #304B94",
"9@	c #334A92",
"0@	c #081449",
"a@	c #5A5A5A",
"b@	c #174FCA",
"c@	c #007AFF",
"d@	c #007FFF",
"e@	c #0084FF",
"f@	c #008AFF",
"g@	c #008FFF",
"h@	c #0094FF",
"i@	c #0099FF",
"j@	c #00AEFF",
"k@	c #374E99",
"l@	c #4D4D4D",
"m@	c #1B54CB",
"n@	c #0083FF",
"o@	c #0088FF",
"p@	c #008DFF",
"q@	c #0092FF",
"r@	c #01B1FF",
"s@	c #04B6FF",
"t@	c #2F428C",
"u@	c #4C4C4C",
"v@	c #666666",
"w@	c #1850C5",
"x@	c #00ABFF",
"y@	c #01B0FF",
"z@	c #03B4FF",
"A@	c #07B9FF",
"B@	c #0ABEFF",
"C@	c #162980",
"D@	c #4F4F4F",
"E@	c #5C5C5C",
"F@	c #6A6A6A",
"G@	c #727272",
"H@	c #777777",
"I@	c #787878",
"J@	c #1049BB",
"K@	c #02B3FF",
"L@	c #05B8FF",
"M@	c #09BCFF",
"N@	c #0CC1FF",
"O@	c #10C6FF",
"P@	c #021580",
"Q@	c #0345BE",
"R@	c #08BBFF",
"S@	c #0BC0FF",
"T@	c #0FC4FF",
"U@	c #12C9FF",
"V@	c #16CEFF",
"W@	c #021581",
"X@	c #0049C5",
"Y@	c #0EC3FF",
"Z@	c #11C8FF",
"`@	c #14CCFF",
" #	c #18D1FF",
".#	c #1BD6FF",
"+#	c #031681",
"@#	c #0043BE",
"##	c #13CAFF",
"$#	c #17CFFF",
"%#	c #1AD4FF",
"&#	c #1ED9FF",
"*#	c #20D6FB",
"=#	c #010B76",
"-#	c #0149BF",
";#	c #0354C0",
">#	c #0456C0",
",#	c #0658C0",
"'#	c #075AC0",
")#	c #095CC0",
"!#	c #0A5EC0",
"~#	c #0C61C0",
"{#	c #0E63C0",
"]#	c #0F65C0",
"^#	c #093BA2",
"                        . . + @ + . .                           ",
"            # $ % & * = - ; > , ' ) ! ~ { ] ^ / (               ",
"        _ : < [ } | ^ 1 2 2 3 1 4 ^ 5 5 4 6 7 8 9 0 a           ",
"    b c < d 1 e f f f g h a i 3 j k l | { m & n ] o 6 p e       ",
"  q r ! _ f f f f f s t u v 2 8 5 w x y m d z } A A & B { h     ",
"  C D E f f f f f f F $ G B 6 4 k l H 9 & z I : J J * } $ m     ",
"  K L / f f f f f f F $ G M 3 j % 0 N m ~ } : ) , ' O } 2 *     ",
"  h P Q 3 f f f f f E / a i 3 j % 0 y n R I O , S T & H U F     ",
"  5 p V W X H B F f E / a i 3 j % 0 y n R I : R { z [ A y ~     ",
"  % > Y Z ` Z  ...D } { % ^ ^ 5 k % K N & ! S U P C n +.@.y     ",
"  % ; #.$.$.W %.0 m A ) ; [ [ U [ [ &.*.=.-.& A X ;.@.; ; H     ",
"  G > >.,.,.,.'.> S ).).' ) ) ' ).!.~.{.].^./.[ ; ; ; ; ' $     ",
"  (.2 r #.Y Y #.; ; ; ; ; ; ; ; _.:.<.[.}.|.1.2.; ; - y 4 4     ",
"  3 _ A 3...4.V ; ; ; ; ; ; ; _.5.6.7.8.9.0.a.b.c.l 0 ) l k     ",
"  k ) D ).: ) T ^ 9 z ! d.' e.f.g.h.i.j.k.l.m.n.o.p.q.| @.R     ",
"  % ; L r.3.> ! s.t.u.u M v.w.x.y.z.A.B.C.D.E.F.G.H.I.J.P &     ",
"  ^ ; +.K.r.L L.: ~ { 0 M.N.O.P.Q.R.S.T.U.V.W.X.Y.Z.`. +; w     ",
"  .+! X @.@.@.L.; - ++@+#+$+%+&+*+=+-+;+>+,+'+)+!+~+{+]+^+i     ",
"  i / 9 ; 3.X 3.; ; /+(+_+:+<+[+}+|+1+2+3+4+5+6+7+8+9+0+a+b+    ",
"  c+: 0 3 % R )., d+e+f+g+h+i+j+k+l+m+n+o+p+q+r+s+t+u+v+w+x+y+  ",
"  % - P T ~ % 2 u.z+A+B+C+D+E+F+G+H+I+J+K+L+M+N+O+P+Q+R+S+T+U+  ",
"  c+; [ V+W+c > z X+Y+Z+`+ @.@+@@@#@$@%@&@*@=@-@;@>@,@'@)@!@~@  ",
"  b , [ V+V+V+V+- ++{@]@^@/@(@_@:@<@[@}@|@1@2@3@4@5@6@7@8@9@0@  ",
"  a@s.} c V+V+V+; ; ; , 9 y b@c@d@e@f@g@h@i@R+S+T+j@k@(.b (     ",
"    l@@ 7 9 ) ; - ; ; ; ; ; m@n@o@p@q@;@>@,@'@)@r@s@t@v q       ",
"        u@v@q h g i c+x m & w@|@1@2@3@4@5@x@y@z@A@B@C@          ",
"              D@E@F@G@H@I@q J@h@i@R+S+T+j@K@L@M@N@O@P@          ",
"                            Q@>@,@'@)@r@s@R@S@T@U@V@W@          ",
"                            X@5@x@y@z@A@B@Y@Z@`@ #.#+#          ",
"                            @#j@K@L@M@N@O@##$#%#&#*#=#          ",
"                              -#;#>#,#'#)#!#~#{#]#^#            ",
"                                                                "};
