/* XPM */
static const char * data_editor_oks_object_xpm[] = {
"48 48 4 1",
" 	c snow s TopShadow",
".	c darkgrey s BottomShadow",
"X	c lightgrey s Background",
"o	c black s Foreground",
"                                               .",
"                                              ..",
"  XXXXXXXXXXXXXXXXXXXXXXXXXXXXXXXXXXXXXXXXXXXX..",
"  XXXXXXXXXXXXXXXXXXXXXXXXXXXXXXXXXXXXXXXXXXXX..",
"  XXoooooooooooooooooooooooooooooooooooooXXXXX..",
"  XXoXXXXXXXXXXXXXXXXXXXXXXXXXXXXXXXXXXXoXXXXX..",
"  XXoX     XoXoooXoXX................. Xo...XX..",
"  XXoX ooo.XooXoXoXXX.                 Xo...XX..",
"  XXoX oXo.XXXXXXXXXXXXXXXXXXXXXXXXXXXXXo...XX..",
"  XXoX ooo.XooXoXoX................... Xo...XX..",
"  XXoX.....XoXoXoXX.                   Xo...XX..",
"  XXoXXXXXXXXXXXXXXXXXXXXXXXXXXXXXXXXXXXo...XX..",
"  XXoXXXXXXXoXoXoXoXX................. Xo...XX..",
"  XXoXXXXXXXooXooXoXX.                 Xo...XX..",
"  XXoXXXXXXXXXXXXXXXXXXXXXXXXXXXXXXXXXXXo...XX..",
"  XXo...................................o...XX..",
"  XXoXXXXXXXXXXXXXXXXXXXXXXXXXXXXXXXXXXXo...XX..",
"  XXoX.................................Xo...XX..",
"  XXoX.XXXXXXXXXXXXXXXXXXXXXXXXXXXXXXX Xo...XX..",
"  XXoX.XoXXooXooXoXXXoXX............ X Xo...XX..",
"  XXoX.XooXooXooXooXooXX.            X Xo...XX..",
"  XXoX.XXXXXXXXXXXXXXXXXXXXXXXXXXXXXXX Xo...XX..",
"  XXoX.XoXXoXooooXXX................ X Xo...XX..",
"  XXoX.XooXoXoXXooXX.                X Xo...XX..",
"  XXoX.XXXXXXXXXXXXXXXXXXXXXXXXXXXXXXX Xo...XX..",
"  XXoX.XoXXoXoXoXX.................. X Xo...XX..",
"  XXoX.XoooXooXoXX.                  X Xo...XX..",
"  XXoX.XXXXXXXXXXXXXXXXXXXXXXXXXXXXXXX Xo...XX..",
"  XXoX.X.............................X Xo...XX..",
"  XXoX.X.XXXXXXXXXXXXXXXXXXXXXXXXXXX X Xo...XX..",
"  XXoX.X.XooXooXoXXoXooooXooooXXXXXX X Xo...XX..",
"  XXoX.X.XXXXXXXXXXXXXXXXXXXXXXXXXXX X Xo...XX..",
"  XXoX.X.XoXooXooXoXXoXoXoXXooXXoooX X Xo...XX..",
"  XXoX.X.XXXXXXXXXXXXXXXXXXXXXXXXXXX X Xo...XX..",
"  XXoX.X.                            X Xo...XX..",
"  XXoX.XXXXXXXXXXXXXXXXXXXXXXXXXXXXXXX Xo...XX..",
"  XXoX.                                Xo...XX..",
"  XXoXXXXXXXXXXXXXXXXXXXXXXXXXXXXXXXXXXXo...XX..",
"  XXo...................................o...XX..",
"  XXoXXXXXXXXXXXXXXXXXXXXXXXXXXXXXXXXXXXo...XX..",
"  XXoXXXXXXXXXXXXXXXXXXXXXXXXXXXXXoooooXo...XX..",
"  XXoXXXXXXXXXXXXXXXXXXXXXXXXXXXXXXXXXXXo...XX..",
"  XXooooooooooooooooooooooooooooooooooooo...XX..",
"  XXXXXX....................................XX..",
"  XXXXXX....................................XX..",
"  XXXXXXXXXXXXXXXXXXXXXXXXXXXXXXXXXXXXXXXXXXXX..",
" ...............................................",
"................................................"};
