/* XPM */
static const char * data_editor_about_xpm[] = {
"48 48 4 1",
" 	c darkgrey s BottomShadow",
".	c white s TopShadow",
"X	c lightgrey s Background",
"o	c black s Foreground",
"                                                ",
"                                               .",
"  XXXXXXXXXXXXXXXXXXXXXXXXXXXXXXXXXXXXXXXXXXXX..",
"  XXXXXXXXXXXXXooooXXXooooXoooXXoooooXXXXXXXXX..",
"  XXX        oo   oo   oo   o   o   o      XXX..",
"  XXX.......ooo...oo...oo.oo...oo...o......XXX..",
"  XXXXXXXXXXooXXXXooXXooXooXXXXXooXXXXXXXXXXXX..",
"  XXXX     ooo    oo  oooo      ooo       XXXX..",
"  XXXX.....oo.....oo..oo.o.......ooo......XXXX..",
"  XXXXXXXXXooXXXXooXXXooXooXXXoXXXooXXXXXXXXXX..",
"  XXXXX    oo    oo  oo  oo   o    o     XXXXX..",
"  XXXXX....oo...oo...oo...oo..oo..oo.....XXXXX..",
"  XXXXXXXXXXooooXXXXooooXooooXoooooXXXXXXXXXXX..",
"  XXXXXXXXXXXXXXXXXXXXXXXXXXXXXXXXXXXXXXXXXXXX..",
"  XooooooooooooooooooooooooooooooooooooooooooX..",
"  Xo                                        oX..",
"  Xo ooo o oo ooo                      oooo oX..",
"  Xo                                        oX..",
"  XooooooooooooooooooooooooooooooooooooooooooX..",
"  XoXXXXXXXXXXXXXXXXXXXXXXXXXXXXXXXXXXXXXXXXoX..",
"  XoXooooooooooooooooooooooooooooooooooooooXoX..",
"  XoXo                                    oXoX..",
"  XoXo XXXXXXXXXXXXXXXXXXXXXXXXXXXXXXXXXX.oXoX..",
"  XoXo XoooooXXXXXXXXXXXXXXXXXXXXXXXXXXXX.oXoX..",
"  XoXo XoXXXooXXXXXXXoXXXXXXXXXXXXXXXXXXX.oXoX..",
"  XoXo XoXXXXoXooooXoooXooooXXXXXXXXXXXXX.oXoX..",
"  XoXo XoXXXXoXXXXoXXoXXXXXoXXXXXXXXXXXXX.oXoX..",
"  XoXo XoXXXXoXooooXXoXXooooXXXXXXXXXXXXX.oXoX..",
"  XoXo XoXXXooXoXXoXXoXXoXXoXXXXXXXXXXXXX.oXoX..",
"  XoXo XoooooXXoooooXooXoooooXXXXXXXXXXXX.oXoX..",
"  XoXo XXXXXXXXXXXXXXXXXXXXXXXXXXXXXXXXXX.oXoX..",
"  XoXo XXXXXXXXXXXXXXXXoXoXXoXXXXXXXXXXXX.oXoX..",
"  XoXo XXXXXXXoooXXXooooXXXoooXXoooXXoXoX.oXoX..",
"  XoXo XXXXXXoXXXoXoXXXoXoXXoXXoXXXoXooXX.oXoX..",
"  XoXo XXXXXXoooooXoXXXoXoXXoXXoXXXoXoXXX.oXoX..",
"  XoXo XXXXXXoXXXXXoXXXoXoXXoXXoXXXoXoXXX.oXoX..",
"  XoXo XXXXXXXooooXXooooXoXXooXXoooXXoXXX.oXoX..",
"  XoXo XXXXXXXXXXXXXXXXXXXXXXXXXXXXXXXXXX.oXoX..",
"  XoXo ...................................oXoX..",
"  XoXooooooooooooooooooooooooooooooooooooooXoX..",
"  XoXXXXXXXXXXXXXXXXXXXXXXXXXXXXXXXXXXXXXXXXoX..",
"  XoXXXXXXXXXXXXXXXXXXXXXXXXXXooooooXXoooooXoX..",
"  XoXXXXXXXXXXXXXXXXXXXXXXXXXX      XX     XoX..",
"  XoXXXXXXXXXXXXXXXXXXXXXXXXXXXXXXXXXXXXXXXXoX..",
"  XooooooooooooooooooooooooooooooooooooooooooX..",
"  XXXXXXXXXXXXXXXXXXXXXXXXXXXXXXXXXXXXXXXXXXXX..",
"  ..............................................",
" ..............................................."};
