/* XPM */
static const char * error_xpm[] = {
"32 32 113 2",
"  	c grey s Background",
". 	c #CE3236",
"+ 	c #CC3235",
"@ 	c #CC3236",
"# 	c #D13337",
"$ 	c #D03236",
"% 	c #D43236",
"& 	c #DC3236",
"* 	c #D33337",
"= 	c #E43236",
"- 	c #F53337",
"; 	c #FF393E",
"> 	c #F15559",
", 	c #E08A8C",
"' 	c #E07E81",
") 	c #FF3B40",
"! 	c #F83438",
"~ 	c #E93337",
"{ 	c #E49C9E",
"] 	c #F0C8C9",
"^ 	c #FAEEEE",
"/ 	c #FCF6F6",
"( 	c #F5DBDC",
"_ 	c #E6A4A6",
": 	c #E66669",
"< 	c #EB3338",
"[ 	c #C63236",
"} 	c #D83236",
"| 	c #FD3337",
"1 	c #E28E90",
"2 	c #F6DEDF",
"3 	c #FBEDEE",
"4 	c #EBB1B3",
"5 	c #F04A4E",
"6 	c #C83236",
"7 	c #DB3337",
"8 	c #F25054",
"9 	c #ECB4B6",
"0 	c #F9E7E8",
"a 	c #F4D4D6",
"b 	c #E27275",
"c 	c #C43236",
"d 	c #D63236",
"e 	c #F34D51",
"f 	c #F1C5C6",
"g 	c #F6DCDD",
"h 	c #EBA9AB",
"i 	c #F5D5D5",
"j 	c #E46E71",
"k 	c #EBAFB1",
"l 	c #F5D3D4",
"m 	c #FFFFFF",
"n 	c #F2CCCC",
"o 	c #E9575B",
"p 	c #CA3236",
"q 	c #E83237",
"r 	c #E29092",
"s 	c #F2C8C9",
"t 	c #F44A4E",
"u 	c #EDB7BA",
"v 	c #F0BEBF",
"w 	c #DC8486",
"x 	c #E28C8E",
"y 	c #EDB3B5",
"z 	c #ECAEB0",
"A 	c #E69C9E",
"B 	c #DF8385",
"C 	c #E8A0A2",
"D 	c #E47275",
"E 	c #BE3235",
"F 	c #E89EA0",
"G 	c #EE5C60",
"H 	c #E69294",
"I 	c #ED6367",
"J 	c #FF3D42",
"K 	c #E86A6D",
"L 	c #E4888A",
"M 	c #EE5E62",
"N 	c #E47A7D",
"O 	c #E48A8C",
"P 	c #F64E52",
"Q 	c #FD3D42",
"R 	c #FA4A4F",
"S 	c #FF4146",
"T 	c #FC4448",
"U 	c #BC3235",
"V 	c #E63236",
"W 	c #FF454A",
"X 	c #FA4E52",
"Y 	c #E63C40",
"Z 	c #F15F63",
"` 	c #EC5C60",
" .	c #EA6E70",
"..	c #D1393D",
"+.	c #E67679",
"@.	c #E57B7E",
"#.	c #D24043",
"$.	c #E18183",
"%.	c #E68487",
"&.	c #BC3236",
"*.	c #D03C40",
"=.	c #DD7F81",
"-.	c #E88A8D",
";.	c #DC5A5D",
">.	c #E48E90",
",.	c #E89294",
"'.	c #CE3A3E",
").	c #D8585B",
"!.	c #D68284",
"~.	c #E59597",
"{.	c #EA989A",
"].	c #CC3C40",
"^.	c #D05053",
"                                                                ",
"                          . . + + + @                           ",
"                    # # $ . % & & % + + + +                     ",
"                * # % = - ; > , , ' ) ! = # + @                 ",
"              # # ~ ; { ] ^ / / / / / ( _ : < + + [             ",
"            # } | 1 2 ^ ^ ^ ^ ^ ^ ^ 3 3 3 3 4 5 } + 6           ",
"          # 7 8 9 0 0 0 0 0 0 0 0 0 0 0 0 0 0 a b } + c         ",
"        # d e f g g h h g g g g g g g g g h h g i j } +         ",
"      $ . | k l l h m m h l l l l l l l h m m h l n o + p       ",
"      . q r s s h m m m m h s s s s s h m m m m h s k < +       ",
"    + # t u v v m m m m m m h v v v h m m m m m m v v w # p     ",
"    + = x y y y m m m m m m m h y h m m m m m m m z A B = +     ",
"    + - C h h h h m m m m m m m h m m m m m m m D ) ) ) - + E   ",
"  + + t F F F F F F m m m m m m m m m m m m m ' ) ) ) ) ; + c   ",
"  + % G H H H H H H H m m m m m m m m m m m I I J J ) ) ) # p   ",
"  + & K L L L H H H H H m m m m m m m m m J J J J ) J ) ) & 6   ",
"  + & M N N N H H H H O I m m m m m m m J J J J J J J ) ) & 6   ",
"  + % P I I I I I I J J m m m m m m m m m J J J J J J J J # 6   ",
"  @ + Q R R R R R R R m m m m m m m m m m m J J J J J S ) + c   ",
"    + ! T T T T T T m m m m m m m m m m m m m J J S S S ! + U   ",
"    + V W W W W W m m m m m m m J m m m m m m m J W W W V +     ",
"    + # R X X X m m m m m m m J J J m m m m m m m X X R # 6     ",
"      + Y Z Z Z m m m m m m Z Z Z Z Z m m m m m m Z Z Y + U     ",
"      @ + `  . . .m m m m  . . . . . . .m m m m  . .` + 6       ",
"        + ..+.@.@.@.m m @.@.@.@.@.@.@.@.@.m m @.@.+...+         ",
"          + #.$.%.%.%.%.%.%.%.%.%.%.%.%.%.%.%.%.$.#.+ &.        ",
"            + *.=.-.-.-.-.-.-.-.-.-.-.-.-.-.-.=.*.+ &.          ",
"              + + ;.>.,.,.,.,.,.,.,.,.,.,.>.;.+ + &.            ",
"                p + '.).!.~.{.{.{.{.~.!.).'.+ 6                 ",
"                    p + + + ].^.^.].+ + + 6 U                   ",
"                        E c p 6 6 6 c U                         ",
"                                                                "};
