/* XPM */
static const char * exit_xpm[] = {
"32 32 4 1",
" 	c lightgrey s Background",
".	c darkgrey s BottomShadow",
"X	c white s TopShadow",
"+	c black s Foreground",
"           XXXXXXXX             ",
"        XXX+++++++++++          ",
"      XX++++         +++        ",
"     X+++              ++       ",
"    X+      XXXXXX       +      ",
"   X+      X+++++++       +     ",
"  X+      X++  +++++       +    ",
" X+       ++    ++++        +   ",
" ++       +++X  ++++        +.  ",
"X+        ++++  X+++        ++. ",
"+          ++  X+++          +. ",
"+             X+++           +..",
"+             +++            +..",
"+             +++            +..",
"+             ++             +..",
"++                           +..",
" +            XX            ++..",
" ++          X+++          ++...",
"  +          ++++          +... ",
"   +          ++          +.... ",
"    +                    +....  ",
"     ++                ++....   ",
"      +++            +++....    ",
"       .++++      ++++.....     ",
"        ...++++   +.......      ",
"          ....+   +.....        ",
"             .+   +..           ",
"               +  +..           ",
"                + +..           ",
"                 ++..           ",
"                  ...           ",
"                   ..           "};
