/* XPM */
static const char * fail_xpm[] = {
"32 32 100 2",
"  	c grey s Background",
". 	c #E43700",
"+ 	c #CB1700",
"@ 	c #E53700",
"# 	c #EA5C20",
"$ 	c #DE3200",
"% 	c #D83110",
"& 	c #CB1500",
"* 	c #F59466",
"= 	c #FEC7B5",
"- 	c #EC6A34",
"; 	c #DC2E00",
"> 	c #DF3D1A",
", 	c #FE7759",
"' 	c #EB502E",
") 	c #C91100",
"! 	c #FEC4B1",
"~ 	c #FEC0AC",
"{ 	c #EA6531",
"] 	c #D92A00",
"^ 	c #FE7153",
"/ 	c #FE6C4E",
"( 	c #EB4828",
"_ 	c #C70E00",
": 	c #FEBDA8",
"< 	c #FEB9A3",
"[ 	c #E8602F",
"} 	c #D62800",
"| 	c #FE6648",
"1 	c #FE6143",
"2 	c #EA3F22",
"3 	c #C60D00",
"4 	c #FEB59F",
"5 	c #FEB19A",
"6 	c #E75B2C",
"7 	c #D42500",
"8 	c #FE5B3D",
"9 	c #FE5538",
"0 	c #D41F09",
"a 	c #C10B00",
"b 	c #FEAE96",
"c 	c #FEAA91",
"d 	c #E55628",
"e 	c #D22100",
"f 	c #DA280F",
"g 	c #C00B00",
"h 	c #FEA58C",
"i 	c #FEA187",
"j 	c #E35126",
"k 	c #D01E00",
"l 	c #FE9D82",
"m 	c #FE997D",
"n 	c #E24C22",
"o 	c #CE1C00",
"p 	c #FE9478",
"q 	c #FE8F73",
"r 	c #E14720",
"s 	c #CB1800",
"t 	c #CA1700",
"u 	c #FE8A6D",
"v 	c #FE8668",
"w 	c #E24722",
"x 	c #E24421",
"y 	c #FE8163",
"z 	c #FE7C5E",
"A 	c #E0411D",
"B 	c #FE5033",
"C 	c #DA230D",
"D 	c #BF0900",
"E 	c #FE4A2E",
"F 	c #FE4428",
"G 	c #D91E0A",
"H 	c #BF0800",
"I 	c #FE3D23",
"J 	c #FE361D",
"K 	c #D81707",
"L 	c #BF0600",
"M 	c #FE2F19",
"N 	c #FE2914",
"O 	c #D81104",
"P 	c #BE0400",
"Q 	c #FE210F",
"R 	c #FE1A0B",
"S 	c #D70901",
"T 	c #BD0300",
"U 	c #FE1206",
"V 	c #FE0902",
"W 	c #D70300",
"X 	c #BC0100",
"Y 	c #FE0300",
"Z 	c #FE0000",
"` 	c #D70100",
" .	c #D70000",
"..	c #BC0000",
"+.	c #CC1700",
"@.	c #CE0000",
"#.	c #E60000",
"$.	c #BE0000",
"%.	c #830000",
"&.	c #800000",
"                                                                ",
"            .                                     +             ",
"          @ # $                                 + % &           ",
"        @ * = - ;                             + > , ' )         ",
"      @ * = ! ~ { ]                         + > , ^ / ( _       ",
"    @ * = ! ~ : < [ }                     + > , ^ / | 1 2 3     ",
"  . # = ! ~ : < 4 5 6 7                 + > , ^ / | 1 8 9 0 a   ",
"    $ - ~ : < 4 5 b c d e             + > , ^ / | 1 8 9 f g     ",
"      ; { < 4 5 b c h i j k         + > , ^ / | 1 8 9 f g       ",
"        ] [ 5 b c h i l m n o     + > , ^ / | 1 8 9 f g         ",
"          } 6 c h i l m p q r s t > , ^ / | 1 8 9 f g           ",
"            7 d i l m p q u v w x , ^ / | 1 8 9 f g             ",
"              e j m p q u v y z , ^ / | 1 8 9 f g               ",
"                k n q u v y z , ^ / | 1 8 9 f g                 ",
"                  o r v y z , ^ / | 1 8 9 f g                   ",
"                    s A z , ^ / | 1 8 9 f g                     ",
"                    t > , ^ / | 1 8 9 B C D                     ",
"                  + > , ^ / | 1 8 9 B E F G H                   ",
"                + > , ^ / | 1 8 9 B E F I J K L                 ",
"              + > , ^ / | 1 8 9 B E F I J M N O P               ",
"            + > , ^ / | 1 8 9 f C F I J M N Q R S T             ",
"          + > , ^ / | 1 8 9 f g D G J M N Q R U V W X           ",
"        + > , ^ / | 1 8 9 f g     H K N Q R U V Y Z ` X         ",
"      + > , ^ / | 1 8 9 f g         L O R U V Y Z Z Z  ...      ",
"    + > , ^ / | 1 8 9 f g             P S V Y Z Z Z Z Z  ...    ",
"  +.% , ^ / | 1 8 9 f g                 T W Z Z Z Z Z Z Z @...  ",
"    & ' / | 1 8 9 f g                     X ` Z Z Z Z Z #.$.%.  ",
"      ) ( 1 8 9 f g                         X  .Z Z Z #.$.&.    ",
"        _ 2 9 f g                             .. .Z #.$.&.      ",
"          3 0 g                                 ..@.$.&.        ",
"            a                                     ..%.          ",
"                                                                "};
