/* XPM */
const char * glink_xpm[] = {
"22 24 4 1",
"  c white s Background",
". c grey s BottomShadow",
"X c lightgrey s TopShadow",
"o c black s Foreground",
". XXXXXXXXXXXXXXXXXX .",
".                    .",
"......................",
".                    .",
". XXXXXXXXXXXXXXXXXX .",
".                    .",
"......................",
"          o           ",
"         o o          ",
"        o   o         ",
"       o     o        ",
"      o       o       ",
"     .ooooooooo.      ",
"          o           ",
"          o           ",
"          o           ",
"          o           ",
"          o           ",
"   ................   ",
"   .              .   ",
"   .  XXXXXXXXXX  .   ",
"   .              .   ",
"   ................   ",
"   .              .   "};
