/* XPM */
const char * link2_xpm[] = {
"30 24 4 1",
". c white s Background",
"  c grey s BottomShadow",
"X c lightgrey s TopShadow",
"o c black s Foreground",
"       .......................",
"...... .......................",
"XXXX.. .......................",
"...... .......................",
"       ....oo...o.o...........",
"...... ....o..o.o.............",
"XXXXX. .....o.o.oo............",
"...... .......................",
"XXXXX. ...oo..................",
"...... .oo..oo................",
"       o......oooooooooooo....",
"...... .oo..oo...........o....",
"XXXXX. ...oo.....oo..o...o....",
"...... ...........o..o...o....",
"       ...........o.oo...o....",
".........................o....",
".........................o....",
"..............                ",
".............. .............. ",
".............. ..XXXXXXXXXX.. ",
".............. .............. ",
"..............                ",
".............. .............. ",
".............. .XXXXXXXXXXXX. "};
