/* XPM */
static const char * many_xpm[] = {
"17 19 3 1",
"  c darkgrey s BottomShadow",
". c white s TopShadow",
"X c lightgrey s Background",
"XXXXXXXXXXXXXXXXX",
"XXXXXX     XXXXXX",
"XXXX         XXXX",
"XXX           XXX",
"XX             XX",
"X     .   .     X",
"X     .   .     X",
"      ..  .      ",
"      . . .      ",
"      . . .      ",
"      .  ..      ",
"      .   .      ",
".     .   .     .",
"X               X",
"X.             .X",
"XX.           .XX",
"XXX.         .XXX",
"XXXX..     ..XXXX",
"XXXXXX.....XXXXXX"};
