/* XPM */
const char * new_class_xpm[] = {
"21 22 5 1",
"  c grey s BottomShadow",
". c white s Background",
"X c green s Green",
"o c lightgrey s TopShadow",
"O c black s Foreground",
"                     ",
" ................... ",
" ...XoXoX.oXo.XoXo.. ",
" ................... ",
"                     ",
" ................... ",
" .oooo.OOOOOOO...... ",
" ......OoooooO...... ",
" .oooo.OoooooO.o.oo. ",
" ......OoooooO...... ",
" .oooo.OoooooO.oooo. ",
" ......OoooooO...... ",
"      .OoooooO.      ",
" ......OoooooO...... ",
" .oOOOOOoooooOOOOO.. ",
" ...OoooooooooooO... ",
"    .OoooooooooO.    ",
"......OoooooooO......",
".......OoooooO.......",
"........OoooO........",
".........OoO.........",
"..........O.........."};
