/* XPM */
static const char * one_xpm[] = {
"17 19 4 1",
"  c darkgrey s BottomShadow",
". c white s TopShadow",
"X c lightgrey s Background",
"o c black s Foreground",
"XXXXXXXXXXXXXXXXX",
"XXXXXX     XXXXXX",
"XXXX   ...   XXXX",
"XXX  ..XXX..  XXX",
"XX  .XXXXXXX.  XX",
"X  .XXXXoXXXX.  X",
"X .XXXXooXXXXX. X",
"  XXXXoXoXXXXXX  ",
" .XXXXXXoXXXXXX. ",
" XXXXXXXoXXXXXXX ",
" XXXXXXXoXXXXXXX ",
"  XXXXXXoXXXXXX  ",
". XXXXoooooXXXX .",
"X  XXXXXXXXXXX  X",
"X.  XXXXXXXXX  .X",
"XX.  XXXXXXX  .XX",
"XXX.   XXX   .XXX",
"XXXX..     ..XXXX",
"XXXXXX.....XXXXXX"};
