/* XPM */
const char * params_xpm[] = {
"20 22 3 1",
"  c white s Background",
". c grey s BottomShadow",
"X c black s Foreground",
"    ..              ",
"    ..        .     ",
"   ....     .. ..   ",
"   . ..   ..     .. ",
"  .. ..  .         .",
"  .   ..  ..     .. ",
" .......    .. ..   ",
" .    ....X   .     ",
"...  ....XXX        ",
"        XXXXX       ",
"       XXXXXXX      ",
"                    ",
"       XXXXXXX      ",
"        XXXXX       ",
"    .    XXX        ",
"    .     X  .      ",
"   . .     .. ..    ",
"   . .    .     ....",
"  .   .    .. ..    ",
"  .....      .      ",
" .     .            ",
" .     .            "};
