/* XPM */
const char * print_xpm[] = {
"20 22 5 1",
"  c white s Background",
". c darkgrey s BottomShadow",
"X c lightgrey s TopShadow",
"o c black s Foreground",
"O c Red s Red",
"                    ",
"                    ",
"      ...........   ",
"      .XXXXXXXXX.   ",
"     .X.......X.    ",
"     .XXXXXXXXX.    ",
"    ..X.......X.ooo ",
"    .XXXXXXXXXX.XXo ",
"   o...........XXoo ",
"  oXXXXXXXXXXXXXoXo ",
" oooooooooooooooXXo ",
" oXXXXXXXXXXXXXoXXo ",
" oXXXXXXXXXXOOXoXo  ",
" oXXXXXXXXXXXXXoXoo ",
" oXXXXXXXXXXXXXooXo ",
" oooooooooooooooXo  ",
"  oXXXXXXXXXXXoXo   ",
"  oXXXXXXXXXXXoo    ",
"   ooooooooooo      ",
"                    ",
"                    ",
"                    "};
