/* XPM */
static const char * remove_xpm[] = {
"22 22 3 1",
"  c white s Background",
". c darkgrey s BottomShadow",
"X c red s Red",
"                      ",
"                      ",
"                      ",
"   .X.           X    ",
"   XXX.        XX.    ",
"    XXX.      XX.     ",
"      XX.    XX.      ",
"       XX.  XX.       ",
"        XX.XX.        ",
"         XX.          ",
"        XXXX.         ",
"       XXX. X.        ",
"      XXX.   X.       ",
"     XXX.     X.      ",
"    XXX.       X      ",
"   XXX.         X     ",
"   XX.           .    ",
"    X.           X    ",
"                      ",
"                      ",
"                      ",
"                      "};
