/* XPM */
const char * rename_xpm[] = {
"22 22 5 1",
"  c grey s BottomShadow",
". c white s Background",
"X c black s Foreground",
"o c lightgrey s TopShadow",
"O c red s Red",
"                      ",
" .................... ",
" .        XXX       . ",
" . ........X.......o. ",
" . .O.O.O..X.......o. ",
" . .OO.O.O.X.......o. ",
" . ........X.......o. ",
" . oooooooXXXooooooo. ",
" .................... ",
"                      ",
" .................... ",
" . . . . . . . ...... ",
" .................... ",
" .                  . ",
" . ................o. ",
" . ................o. ",
" . ................o. ",
" . ................o. ",
" . ................o. ",
" . ooooooooooooooooo. ",
" .................... ",
"                      "};
