/* XPM */
const char * revert_xpm[] = {
"22 22 5 1",
"  c grey s BottomShadow",
". c lightgrey s TopShadow",
"X c white s Background",
"o c black s Foreground",
"O c red s Red",
"      ...........   XX",
" XXXXX.XXXXXXXXX.XXX X",
" XXXXX.XXXXX..XX.XXXX ",
" XXXXX.XXXXX..XX.XXXX ",
" XXXXX.XXXXX..XX.XXXX ",
" XXXXX.XXXXX..XX.XXXX ",
" XXXXX.XXXXX..XX.XXXX ",
" XXXXX.oooooooXX.XXXX ",
" XXXXXXo.....o..XXXXX ",
" XXXXXXo.....oXXXXXXX ",
" XXXXXXo.....oXXXXXXX ",
" XXX   o.....o    XXX ",
" XX XXXo.....oXXXX XX ",
" XX XOOo.....oOOOX XX ",
" XX XXXo.....oXXXX XX ",
" XX ooo.......oooX XX ",
" XX Xo.........oXX XX ",
" XX X.o.......oXXX XX ",
" XX XXXo.....oXXXX XX ",
" XX X...o...oXXXXX XX ",
" XX XXXXXo.oXXXXXX XX ",
"          o           "};
