/* XPM */
const char * save_xpm[] = {
"22 22 5 1",
"  c white s Background",
". c black s Foreground",
"X c grey s BottomShadow",
"o c lightgrey s TopShadow",
"O c red s Red",
"......XXXXXXXXXXX...  ",
".     XoooooooooX   . ",
".     XoooooXXooX    .",
".     XoooooXXooX    .",
".     XoooooXXooX    .",
".     XoooooXXooX    .",
".     XoooooXXooX    .",
".     XoooooooooX    .",
".      XXXXXXXXX     .",
".                    .",
".                    .",
".   ..............   .",
".  .oooooooooooooo.  .",
".  .oOOOOOOOOOOOOo.  .",
".  .oooooooooooooo.  .",
".  .oXXXXXXXXXXXXo.  .",
".  .oooooooooooooo.  .",
".  .oXXXXXoooooooo.  .",
".  .oooooooooooooo.  .",
".  .oXXXXXXXXooooo.  .",
".  .oooooooooooooo.  .",
"......................"};
