/* XPM */
const char * save_as_xpm[] = {
"22 22 5 1",
"  c white s Background",
". c grey s BottomShadow",
"X c lightgrey s TopShadow",
"o c black s Foreground",
"O c red s Red",
"......XXXXXXXXXXX...  ",
".     X         X   . ",
".     X     XX  X    .",
".     X     XX  X    .",
".     X     XX  X    .",
".    ooooo  XX  X    .",
".   ooX  oo XX  X    .",
".   ooX  oo     X    .",
".      XXooXXXXX     .",
".      ooo           .",
".     oo             .",
".   ..oo..........   .",
".  .              .  .",
".  . OooOOooOooOoo.  .",
".  .  oo  oo oo oo.  .",
".  . XXXXXXXXXXXX .  .",
".  .              .  .",
".  . XXXXX        .  .",
".  .              .  .",
".  . XXXXXXXX     .  .",
".  .              .  .",
"......................"};
