/* XPM */
static const char * schema_editor_oks_attribute_xpm[] = {
"50 48 4 1",
" 	c white s TopShadow",
".	c darkgrey s BottomShadow",
"X	c lightgrey s Background",
"o	c black s Foreground",
"                                                 .",
"                                                ..",
"  XXXXXXXXXXXXXXXXXXXXXXXXXXXXXXXXXXXXXXXXXXXXXX..",
"  XXXXXX..................................XXXXXX..",
"  XXXXXX.XXXXXXXXXXXXXXXXXXXXXXXXXXXXXXXX.XXXXXX..",
"  XXXXXX.XXXXXXXXXXXXXXXXXXXXXXXXXX..XXXX.XXXXXX..",
"  XXXXXX.XXXXXXXXXXXXXXXXXXXXXX.XXXX.XXXX.XXXXXX..",
"  XXXXXX.XXXXXXXXXXXXXXXXXXXXXX.XXXX.XXXX.XXXXXX..",
"  XXXXX...XXXXXXXXXXXXXXXXXXX.....XX.XXX...XXXXX..",
"  XXXX.XXX.XXXXXXXXXXXXXXXXXXXX.XXXX.XX.....XXXX..",
"  XXXX.XXX.XXXXXXXXXXXXXXXXXXXX.XXX...X.....XXXX..",
"  XXXX.XXX.XXXXXXXXXXXXXXXXXXXXXXXXXXXX.....XXXX..",
"  XXXXX...XXXXXXXXXXXXXXXXXXXXXXXXXXXXXX...XXXXX..",
"  XooooooooooooooooooooooooooooooooooooooooooooX..",
"  XoXXXXXXXXXXXXXXXXXXXXXXXXXXXXXXXXXXXXXXXXXXoX..",
"  XoXXXXXXXXXXXXXXXXXXXXXXXXXXXXXXXXXXXXXXXXXXoX..",
"  XoXXXXXXXXXXXX....X..XXXXXXXXXXXXXXXXXXXXXXXoX..",
"  XoXXXXXXXXXXX.XXX.XX.XXXXXXXXXXXXXXXXXXXXXXXoX..",
"  XoXXXXXXXXXX.XXXX.XX.X...X...X...XXXXXXXXXXXoX..",
"  XoXXXXXXXXXX.XXXXXXX.XXX.X.XXX.XXXXXXXXXXXXXoX..",
"  XoXXXXXXXXXX.XXXXXXX.XX..XX.XXX.XXXXXXXXXXXXoX..",
"  XoXXXXXXXXXXX.XXX.XX.X.X.XXX.XXX.XXXXXXXXXXXoX..",
"  XoXXXXXXXXXXXX...XX..........X...XXXXXXXXXXXoX..",
"  XoXXXXXXXXXXXXXXXXXXXXXXXXXXXXXXXXXXXXXXXXXXoX..",
"  XooooooooooooooooooooooooooooooooooooooooooooX..",
"  XoXXXXXXXXXXXXXXXXXXXXXXXXXXXXXXXXXXXXXXXXXXoX..",
"  XoXXXXoXXXXXXXXXXXXXoXooXXXXXXXXXXXXXXXXXXXXoX..",
"  XoXXXXoXXXXoXXoXXXXXXXXoXXXXXXXXXoXXXXXXXXXXoX..",
"  XoXXXoXoXXoooooooXoooXXoooXooXoooooXooXoooXXoX..",
"  XoXXXoXoXXXoXXoXXoXXoXXoXXoXoXXoXoXoXXooXXXXoX..",
"  XoXXoooooXXoXXoXXoXXoXXoXXoXoXXoXoXooooXoXXXoX..",
"  XoXXoXXXoXXoXXoXXoXXoXXoXXoXoXooXoXoXXXXXoXXoX..",
"  XoXoooXoooXooXooooooooXoooXXooXooooXooooooXXoX..",
"  XoXXXXXXXXXXXXXXXXXXXXXXXXXXXXXXXXXXXXXXXXXXoX..",
"  XooooooooooooooooooooooooooooooooooooooooooooX..",
"  XoXXXXXXXXXXXXXXXXXXXXXXXXXXXXXXXXXXXXXXXXXXoX..",
"  XoXXXX..XXXXX..XXXXXXX..XXXXXXXXXX..XXXXXXXXoX..",
"  XoXXXXX..XXX..XXXXXX.XX.XXXXXXXXXXX.XXXXXXXXoX..",
"  XoXXXXX..XXX..XX..X...X.X..XX..XX...X...XXXXoX..",
"  XoXXXXX.X.X.X.X.XX.X.XX..X.X.XX..XX.X.XXXXXXoX..",
"  XoXXXXX.X.X.X.X....X.XX.XX.X.XX..XX.XX.XXXXXoX..",
"  XoXXXXX.XX.XX.X.XXXX.XX.XX.X.XX..XX.XXX.XXXXoX..",
"  XoXXXX...X.X...X...X.....X..X..XX.......XXXXoX..",
"  XoXXXXXXXXXXXXXXXXXXXXXXXXXXXXXXXXXXXXXXXXXXoX..",
"  XooooooooooooooooooooooooooooooooooooooooooooX..",
"  XXXXXXXXXXXXXXXXXXXXXXXXXXXXXXXXXXXXXXXXXXXXXX..",
" .................................................",
".................................................."};
