/* XPM */
const char * select_xpm[] = {
"26 24 3 1",
"  c black s Foreground",
". c white s Background",
"X c grey s BottomShadow",
"   .......................",
" ..    ...................",
" ......   ................",
". ....  ..................",
". .... ...................",
". ..... ..................",
". .  ... .................",
"..  . ... ................",
".. ... ... ...XXX.........",
".. .... ... .X..XX........",
"........ . ..X..XX........",
"......... ...X..XX........",
".............X..XX........",
".............X..XX........",
".........XXX.X..XXXXX.....",
"........X..XXX..X.X.XXX...",
".........X..XX..X.X.X.XX..",
"..........X..X......X.XX..",
"..........X..X........XX..",
"...........X..........XX..",
"............X.........XX..",
"............X........XX...",
".............X.......XX...",
".............X.......XX..."};
