/* XPM */
static const char * select_class_xpm[] = {
"24 24 299 2",
"  	c lightgrey s Background",
". 	c #D8D8DA",
"+ 	c #DCDCDF",
"@ 	c #DADADE",
"# 	c #D8D8DD",
"$ 	c #D5D5DC",
"% 	c #D2D2DA",
"& 	c #CFCFD9",
"* 	c #CBCBD7",
"= 	c #C7C7D5",
"- 	c #B4B4C4",
"; 	c #DFDFE6",
"> 	c #D6D6DF",
", 	c #DDDDE4",
"' 	c #EEEEF1",
") 	c #FEFEFE",
"! 	c #FEFEFF",
"~ 	c #F9F9FE",
"{ 	c #F5F5FB",
"] 	c #C4C4D4",
"^ 	c #B0B0C3",
"/ 	c #A0A0B4",
"( 	c #BBBBC9",
"_ 	c #BBBFD2",
": 	c #C0C9DE",
"< 	c #C3CADE",
"[ 	c #CBCCD8",
"} 	c #D4D4DD",
"| 	c #E5E5EB",
"1 	c #CDCDDB",
"2 	c #E8E8F0",
"3 	c #A8A8BE",
"4 	c #A5A5B8",
"5 	c #A5B0CB",
"6 	c #AECAE9",
"7 	c #D3EDFE",
"8 	c #E5F5FF",
"9 	c #EAF6FF",
"0 	c #D0E3F8",
"a 	c #BACBE5",
"b 	c #D2D4DF",
"c 	c #D9D9E3",
"d 	c #F5F5FA",
"e 	c #CCCCDB",
"f 	c #E6E6F0",
"g 	c #A1A1B9",
"h 	c #9999AF",
"i 	c #8C9FC5",
"j 	c #ACD8F8",
"k 	c #C7EBFF",
"l 	c #D4F0FF",
"m 	c #DCF3FF",
"n 	c #E0F4FF",
"o 	c #DCF2FF",
"p 	c #D3EFFF",
"q 	c #B0CFF0",
"r 	c #D1D4E0",
"s 	c #DCDCE5",
"t 	c #CACADA",
"u 	c #FFFFFF",
"v 	c #FDFDFF",
"w 	c #E2E2ED",
"x 	c #9999B5",
"y 	c #7E7E99",
"z 	c #8A94B6",
"A 	c #8FC2F4",
"B 	c #ACDAFC",
"C 	c #BFE7FF",
"D 	c #CBEDFF",
"E 	c #D1EFFF",
"F 	c #D0EEFF",
"G 	c #CAECFF",
"H 	c #BFE8FF",
"I 	c #A5C3E9",
"J 	c #D3D3DD",
"K 	c #B4B4CA",
"L 	c #C2C2D4",
"M 	c #BFBFD3",
"N 	c #BCBCD1",
"O 	c #A8A8C4",
"P 	c #8585A4",
"Q 	c #8C8CA4",
"R 	c #688FCB",
"S 	c #90C6F9",
"T 	c #A0D1FC",
"U 	c #B2DEFE",
"V 	c #C5EBFF",
"W 	c #C7ECFF",
"X 	c #C4EBFF",
"Y 	c #BDE6FF",
"Z 	c #B2DEFF",
"` 	c #9DCCFC",
" .	c #C6CDE1",
"..	c #D4D4E0",
"+.	c #E7E7F1",
"@.	c #DFDFEC",
"#.	c #DEDEEB",
"$.	c #8C8CA9",
"%.	c #8385A0",
"&.	c #316ECC",
"*.	c #6EA9EE",
"=.	c #92C7F9",
"-.	c #A4D4FD",
";.	c #B0DDFF",
">.	c #B6E1FF",
",.	c #B8E3FF",
"'.	c #B5E0FF",
").	c #AEDBFF",
"!.	c #A3D3FD",
"~.	c #96C9FC",
"{.	c #A6BCE2",
"].	c #C5C5D5",
"^.	c #C1C1D9",
"/.	c #B9B9D5",
"(.	c #B5B5D2",
"_.	c #DDDDEC",
":.	c #8989A8",
"<.	c #797D9E",
"[.	c #1459C7",
"}.	c #2166CF",
"|.	c #4A87D9",
"1.	c #8DBBF1",
"2.	c #A5D0FD",
"3.	c #A4CDF9",
"4.	c #A2C9F8",
"5.	c #9DC6F6",
"6.	c #98C4F6",
"7.	c #93C6FA",
"8.	c #89BFFA",
"9.	c #98B3E1",
"0.	c #CACAD8",
"a.	c #CACADF",
"b.	c #C5C5DD",
"c.	c #C2C2DB",
"d.	c #DEDEED",
"e.	c #8686A6",
"f.	c #777898",
"g.	c #2765C7",
"h.	c #3878D5",
"i.	c #4F8AD7",
"j.	c #94BAEC",
"k.	c #B6D8FE",
"l.	c #B7D8FB",
"m.	c #B0D3FA",
"n.	c #A5CAF8",
"o.	c #95BEF5",
"p.	c #83B4F5",
"q.	c #A2B7DF",
"r.	c #C6C6D5",
"s.	c #D2D2E5",
"t.	c #CFCFE3",
"u.	c #CBCBE0",
"v.	c #E0E0EE",
"w.	c #8484A5",
"x.	c #737390",
"y.	c #466FB5",
"z.	c #4C87D7",
"A.	c #669CDA",
"B.	c #A6C7EE",
"C.	c #CAE8FF",
"D.	c #CDE8FB",
"E.	c #CBE7FB",
"F.	c #C1DEF9",
"G.	c #B1D2F6",
"H.	c #9FC3F3",
"I.	c #8BB3EF",
"J.	c #BAC2DA",
"K.	c #BFBFD2",
"L.	c #CDCDE1",
"M.	c #C9C9DF",
"N.	c #E1E1EF",
"O.	c #8181A4",
"P.	c #636382",
"Q.	c #69759E",
"R.	c #5B92D6",
"S.	c #79AADC",
"T.	c #B5D2EF",
"U.	c #DDF5FF",
"V.	c #DDF2FB",
"W.	c #DAEFFA",
"X.	c #CFE8F8",
"Y.	c #BEDAF6",
"Z.	c #A9CAF2",
"`.	c #99B4DF",
" +	c #C0C0CE",
".+	c #C2C2D7",
"++	c #C3C3DA",
"@+	c #BEBED8",
"#+	c #E2E2EF",
"$+	c #7F7FA3",
"%+	c #6E6E8C",
"&+	c #6A7FAA",
"*+	c #85B2DC",
"=+	c #C0DAEF",
"-+	c #E8FAFF",
";+	c #EAF6FB",
">+	c #E9F4FB",
",+	c #DDEFFA",
"'+	c #CBE5F9",
")+	c #B1CCEB",
"!+	c #B8BBCD",
"~+	c #AFAFC1",
"{+	c #CACADD",
"]+	c #C5C5DC",
"^+	c #C1C1DA",
"/+	c #E4E4F1",
"(+	c #7C7CA1",
"_+	c #70708E",
":+	c #7A86A6",
"<+	c #B9CFE4",
"[+	c #EBFBFF",
"}+	c #F4FBFD",
"|+	c #F3F9FC",
"1+	c #E2F1FA",
"2+	c #BCCBDD",
"3+	c #B0B3C5",
"4+	c #AAAABC",
"5+	c #AAAABD",
"6+	c #D5D5E5",
"7+	c #DAD3D5",
"8+	c #D3D3E6",
"9+	c #D0D0E4",
"0+	c #E7E7F3",
"a+	c #7A7AA0",
"b+	c #6A6A87",
"c+	c #7B7C98",
"d+	c #999DB3",
"e+	c #ACAFC1",
"f+	c #AFB1C3",
"g+	c #A1A2B7",
"h+	c #A2A2B7",
"i+	c #9E9EB3",
"j+	c #ABABBD",
"k+	c #AF9681",
"l+	c #E7AF42",
"m+	c #D1B8A0",
"n+	c #E9E9F4",
"o+	c #77779E",
"p+	c #A2A2BA",
"q+	c #AEAEC0",
"r+	c #BEBECD",
"s+	c #D8D8E4",
"t+	c #DBDBE7",
"u+	c #D6D5E4",
"v+	c #9C8476",
"w+	c #E4B765",
"x+	c #FFF2B2",
"y+	c #F2BF4B",
"z+	c #C1A895",
"A+	c #E8E8F3",
"B+	c #75759D",
"C+	c #BBBBD1",
"D+	c #EFEFF2",
"E+	c #EBEBF0",
"F+	c #E7E7EE",
"G+	c #E2E2EC",
"H+	c #DEDEE9",
"I+	c #D6D4E0",
"J+	c #B4772D",
"K+	c #F0A92C",
"L+	c #FAD683",
"M+	c #FFF1B1",
"N+	c #F4C14C",
"O+	c #E9D0B0",
"P+	c #72729C",
"Q+	c #B9B9D0",
"R+	c #F5F5F7",
"S+	c #F0F0F4",
"T+	c #EBEBF2",
"U+	c #D3CACC",
"V+	c #BD7A24",
"W+	c #F1AA2D",
"X+	c #F4C14B",
"Y+	c #947357",
"Z+	c #B6B6CF",
"`+	c #F7F7F9",
" @	c #F3F3F6",
".@	c #F0F0F5",
"+@	c #EBEBF3",
"@@	c #E7E7F2",
"#@	c #DCD3D4",
"$@	c #C38029",
"%@	c #FAD682",
"&@	c #F3BF47",
"*@	c #ACACC8",
"=@	c #EAEAF2",
"-@	c #E9E9F1",
";@	c #E8E8F1",
">@	c #E7E7F0",
",@	c #E3E3EF",
"'@	c #CFC6CA",
")@	c #B97723",
"!@	c #F1BC46",
"~@	c #B86F0E",
"{@	c #F7D27F",
"]@	c #D7B173",
"^@	c #B76E0F",
"/@	c #B38041",
"(@	c #A39FAD",
"          . + @ # $ % & * = -                   ",
"          # ; > , ' ) ! ~ { ] ^                 ",
"        / ( _ : < [ } | ~ { 1 2 3               ",
"      4 5 6 7 8 9 0 a b c d e ! f g             ",
"    h i j k l m n o p q r s t u v w x           ",
"  y z A B C D E p F G H I J K L M N O P         ",
"  Q R S T U H V W X Y Z `  ...+.@.#.#.$.        ",
"  %.&.*.=.-.;.>.,.'.).!.~.{.].^./.(._.:.        ",
"  <.[.}.|.1.2.3.4.5.6.7.8.9.0.a.b.c.d.e.        ",
"  f.g.h.i.j.k.l.l.m.n.o.p.q.r.s.t.u.v.w.        ",
"  x.y.z.A.B.C.D.E.F.G.H.I.J.K.L.M.b.N.O.        ",
"  P.Q.R.S.T.U.V.W.X.Y.Z.`. +.+++@+/.#+$+        ",
"    %+&+*+=+-+;+>+,+'+)+!+~+{+M.]+^+/+(+        ",
"      _+:+<+[+}+|+1+2+3+4+5+6+7+8+9+0+a+        ",
"        b+c+d+e+f+g+h+5+i+j+k+l+m+s.n+o+        ",
"          p+- 4+q+r+s+t+u+v+w+x+y+z+A+B+        ",
"          C+) D+E+F+G+H+I+J+K+L+M+N+O+P+        ",
"          Q+u ) ) R+S+T+f U+V+W+L+x+X+Y+        ",
"          Z+u u u `+ @.@+@@@#@$@K+%@x+&@        ",
"          *@T+=@-@-@;@>@f ,@#+'@)@K+L+M+!@      ",
"                                  ~@W+{@]@      ",
"                                    ^@/@(@      ",
"                                                ",
"                                                "};
