/* XPM */
static const char * stop_xpm[] = {
"32 32 4 1",
" 	c grey s Background",
".	c darkgrey s BottomShadow",
"X	c red s Red",
"o	c lightgrey s TopShadow",
"        ................        ",
"       .XXXXXXXXXXXXXXXX.       ",
"      .XXXXXXXXXXXXXXXXXX.      ",
"     .XXXXXXXXXXXXXXXXXXXX.     ",
"    .XXXXXXXXXXXXXXXXXXXXXX.    ",
"   .XXXXXXXXXXXXXXXXXXXXXXXX.   ",
"  .XXXXXXXXXXXXXXXXXXXXXXXXXX.  ",
" .XXXXXXXXXXXXXXXXXXXXXXXXXXXX. ",
".XXXXXXXXXXXXXXXXXXXXXXXXXXXXXXo",
".XXXXXXXXXXXXXXXXXXXXXXXXXXXXXXo",
".XXXXXXXXXXXXXXXXXXXXXXXXXXXXXXo",
".XXooooXXooooooXXXoooXXXoooooXXo",
".XooXXooXXXooXXXXooXooXXooXXooXo",
".XoooXXXXXXooXXXooXXXooXooXXooXo",
".XXooooXXXXooXXXooXXXooXooXXooXo",
".XXXXoooXXXooXXXooXXXooXoooooXXo",
".XoXXXooXXXooXXXooXXXooXooXXXXXo",
".XooXXooXXXooXXXXooXooXXooXXXXXo",
".XXooooXXXXooXXXXXoooXXXooXXXXXo",
".XXXXXXXXXXXXXXXXXXXXXXXXXXXXXXo",
".XXXXXXXXXXXXXXXXXXXXXXXXXXXXXXo",
".XXXXXXXXXXXXXXXXXXXXXXXXXXXXXXo",
" oXXXXXXXXXXXXXXXXXXXXXXXXXXXXo ",
"  oXXXXXXXXXXXXXXXXXXXXXXXXXXo  ",
"   oXXXXXXXXXXXXXXXXXXXXXXXXo   ",
"    oXXXXXXXXXXXXXXXXXXXXXXo    ",
"     oXXXXXXXXXXXXXXXXXXXXo     ",
"      oXXXXXXXXXXXXXXXXXXo      ",
"       oXXXXXXXXXXXXXXXXo       ",
"        oXXXXXXXXXXXXXXo        ",
"         oooooooooooooo         ",
"                                "};
