/* XPM */
const char * tree_xpm[] = {
"48 48 4 1",
"T	c darkgrey s BottomShadow",
".	c white s TopShadow",
" 	c lightgrey s Background",
"o	c black s Foreground",
"TTTTTTTTTTTTTTTTTTTTTTTTTTTTTTTTTTTTTTTTTTTTTTTT",
"TTTTTTTTTTTTTTTTTTTTTTTTTTTTTTTTTTTTTTTTTTTTTTT.",
"TT                                            ..",
"TT                                            ..",
"TT                                            ..",
"TT                                            ..",
"TT                                            ..",
"TT                TTTTTTTTTTT                 ..",
"TT                T         .                 ..",
"TT             oooT         .                 ..",
"TT             o  T         .                 ..",
"TT             o  T..........                 ..",
"TT             o                              ..",
"TT             o                              ..",
"TT  TTTTTTTT   o  TTTTTTTTTT       TTTTTTTTT  ..",
"TT  T      .   o  T        .       T       .  ..",
"TT  T      .ooooooT        .    oooT       .  ..",
"TT  T      .   o  T        .    o  T       .  ..",
"TT  T.......   o  T.........    o  T........  ..",
"TT             o                o             ..",
"TT             o                o             ..",
"TT             o  TTTTTTTTT     o  TTTTTTTTT  ..",
"TT             o  T       .     o  T       .  ..",
"TT             oooT       .ooooooooT       .  ..",
"TT                T       .     o  T       .  ..",
"TT                T........     o  T........  ..",
"TT                              o             ..",
"TT                              o             ..",
"TT                              o  TTTTTTTTT  ..",
"TT                              o  T       .  ..",
"TT                              oooT       .  ..",
"TT                                 T       .  ..",
"TT                                 T........  ..",
"TT                                            ..",
"TT                                            ..",
"TT oo  oo           ooooo ooooo  ooooo  ooooo ..",
"TT  o  o              o   o   o  o      o     ..",
"TT   oo    o oo oo    o   o   o  o      o     ..",
"TT   oo    oo oo o    o   oooo   oooo   oooo  ..",
"TT   oo    o  o  o    o   o   o  o      o     ..",
"TT  o  o   o  o  o    o   o   o  o      o     ..",
"TT oo  oo  o  o  o    o   o   o  ooooo  ooooo ..",
"TT                                            ..",
"TT                                            ..",
"TT                                            ..",
"TT                                            ..",
"TT..............................................",
"T..............................................."};
