/* XPM */
static const char * update_xpm[] = {
"32 32 318 2",
"  	c grey s Background",
". 	c #626262",
"+ 	c #686868",
"@ 	c #6E6E6E",
"# 	c #646464",
"$ 	c #898989",
"% 	c #A2A2A2",
"& 	c #B3B3B3",
"* 	c #BDBDBD",
"= 	c #C5C5C5",
"- 	c #CBCBCB",
"; 	c #CCCCCC",
"> 	c #C9C9C9",
", 	c #C4C4C4",
"' 	c #C3C3C3",
") 	c #C2C2C2",
"! 	c #BCBCBC",
"~ 	c #B5B5B5",
"{ 	c #ADADAD",
"] 	c #A6A6A6",
"^ 	c #9E9E9E",
"/ 	c #8A8A8A",
"( 	c #656565",
"_ 	c #8D8D8D",
": 	c #BEBEBE",
"< 	c #D8D8D8",
"[ 	c #D2D2D2",
"} 	c #B9B9B9",
"| 	c #A9A9A9",
"1 	c #999999",
"2 	c #969696",
"3 	c #989898",
"4 	c #9C9C9C",
"5 	c #9F9F9F",
"6 	c #979797",
"7 	c #909090",
"8 	c #9A9A9A",
"9 	c #AEAEAE",
"0 	c #A7A7A7",
"a 	c #8F8F8F",
"b 	c #7E7E7E",
"c 	c #CFCFCF",
"d 	c #B4B4B4",
"e 	c #878787",
"f 	c #828282",
"g 	c #868686",
"h 	c #8B8B8B",
"i 	c #949494",
"j 	c #9D9D9D",
"k 	c #A1A1A1",
"l 	c #A5A5A5",
"m 	c #B0B0B0",
"n 	c #B1B1B1",
"o 	c #959595",
"p 	c #B2B2B2",
"q 	c #797979",
"r 	c #E1E1E1",
"s 	c #838383",
"t 	c #888888",
"u 	c #8C8C8C",
"v 	c #919191",
"w 	c #A4A4A4",
"x 	c #A8A8A8",
"y 	c #ACACAC",
"z 	c #B7B7B7",
"A 	c #BABABA",
"B 	c #929292",
"C 	c #AFAFAF",
"D 	c #CECECE",
"E 	c #858585",
"F 	c #848484",
"G 	c #8E8E8E",
"H 	c #AAAAAA",
"I 	c #BBBBBB",
"J 	c #BFBFBF",
"K 	c #A3A3A3",
"L 	c #DCDCDC",
"M 	c #939393",
"N 	c #ABABAB",
"O 	c #C0C0C0",
"P 	c #CDCDCD",
"Q 	c #D7D7D7",
"R 	c #B6B6B6",
"S 	c #C8C8C8",
"T 	c #C7C7C7",
"U 	c #D3D3D3",
"V 	c #EAEAEA",
"W 	c #F6F6F6",
"X 	c #D6D6D6",
"Y 	c #F0F0F0",
"Z 	c #FBFBFB",
"` 	c #FAFAFA",
" .	c #F1F1F1",
"..	c #E2E2E2",
"+.	c #DBDBDB",
"@.	c #DADADA",
"#.	c #EFEFEF",
"$.	c #F7F7F7",
"%.	c #F3F3F3",
"&.	c #74B3F4",
"*.	c #287AF9",
"=.	c #2578FA",
"-.	c #277AFD",
";.	c #297CFF",
">.	c #2A7CFF",
",.	c #287AFD",
"'.	c #1F72F5",
").	c #1568EA",
"!.	c #196BEB",
"~.	c #73B4F8",
"{.	c #EBEBEB",
"].	c #F4F4F4",
"^.	c #F2F2F2",
"/.	c #C6C6C6",
"(.	c #9CB6CD",
"_.	c #155CFF",
":.	c #A5B6FF",
"<.	c #B7C4FF",
"[.	c #B6C3FF",
"}.	c #B5C3FF",
"|.	c #B5C2FF",
"1.	c #A2B3FF",
"2.	c #1359FF",
"3.	c #A0BDD6",
"4.	c #767676",
"5.	c #96B9D8",
"6.	c #3F75FE",
"7.	c #C3CEFF",
"8.	c #C3CDFF",
"9.	c #C2CDFF",
"0.	c #C1CCFF",
"a.	c #C0CCFF",
"b.	c #3D71FE",
"c.	c #678EB0",
"d.	c #D5D5D5",
"e.	c #E7E7E7",
"f.	c #96B6D6",
"g.	c #3B6EFC",
"h.	c #B2C0FF",
"i.	c #B1C0FF",
"j.	c #B1BFFF",
"k.	c #B0BFFF",
"l.	c #B0BEFF",
"m.	c #386BFC",
"n.	c #527498",
"o.	c #C1C1C1",
"p.	c #8FACCC",
"q.	c #3567FA",
"r.	c #A1B2FF",
"s.	c #A0B2FF",
"t.	c #A0B1FF",
"u.	c #9FB1FF",
"v.	c #9FB0FF",
"w.	c #3364FA",
"x.	c #577599",
"y.	c #DDDDDD",
"z.	c #7D7D7D",
"A.	c #7A7A7A",
"B.	c #818181",
"C.	c #7089AB",
"D.	c #3060F8",
"E.	c #91A5FF",
"F.	c #90A5FF",
"G.	c #90A4FF",
"H.	c #8FA4FF",
"I.	c #8FA3FF",
"J.	c #8EA3FF",
"K.	c #2E5EF8",
"L.	c #708BAF",
"M.	c #DEDEDE",
"N.	c #D9D9D9",
"O.	c #788EB0",
"P.	c #2A59F6",
"Q.	c #8098FF",
"R.	c #8097FF",
"S.	c #7F97FF",
"T.	c #7F96FF",
"U.	c #7E96FF",
"V.	c #7D95FF",
"W.	c #2857F6",
"X.	c #647BA0",
"Y.	c #7F7F7F",
"Z.	c #CACACA",
"`.	c #96A8CC",
" +	c #2552F4",
".+	c #6F8AFF",
"++	c #6F89FF",
"@+	c #6E89FF",
"#+	c #6E88FF",
"$+	c #6D88FF",
"%+	c #2350F4",
"&+	c #64779E",
"*+	c #C4C6CB",
"=+	c #8798C7",
"-+	c #7E92C6",
";+	c #5C79C4",
">+	c #1F4BF2",
",+	c #5F7DFF",
"'+	c #5E7DFF",
")+	c #5E7CFF",
"!+	c #5D7CFF",
"~+	c #5C7BFF",
"{+	c #1E4AF2",
"]+	c #3A58A5",
"^+	c #52669B",
"/+	c #667AAF",
"(+	c #5C6D9C",
"_+	c #A0A0A0",
":+	c #3E5FC7",
"<+	c #0D47F3",
"[+	c #3163F8",
"}+	c #3464F8",
"|+	c #3364F8",
"1+	c #3C6CFE",
"2+	c #4E7AFF",
"3+	c #4D79FF",
"4+	c #4C78FF",
"5+	c #4B78FF",
"6+	c #396AFE",
"7+	c #3162F8",
"8+	c #3062F8",
"9+	c #2A5DF8",
"0+	c #023FF3",
"a+	c #0030C4",
"b+	c #0E3CC6",
"c+	c #0C5AFF",
"d+	c #3073FF",
"e+	c #3E7CFF",
"f+	c #3E7BFF",
"g+	c #3D7BFF",
"h+	c #3C7BFF",
"i+	c #3C7AFF",
"j+	c #3B7AFF",
"k+	c #3B79FF",
"l+	c #3A79FF",
"m+	c #296EFF",
"n+	c #0656FF",
"o+	c #0052FF",
"p+	c #0032C9",
"q+	c #D4D4D4",
"r+	c #D1D1D1",
"s+	c #7179B0",
"t+	c #014AE2",
"u+	c #0064FF",
"v+	c #0D6DFF",
"w+	c #1E77FF",
"x+	c #2B7EFF",
"y+	c #2D7FFF",
"z+	c #2C7FFF",
"A+	c #2A7EFF",
"B+	c #277CFF",
"C+	c #1A74FF",
"D+	c #0869FF",
"E+	c #004BE4",
"F+	c #07166F",
"G+	c #777CB9",
"H+	c #0153E0",
"I+	c #0076FF",
"J+	c #0177FF",
"K+	c #077AFF",
"L+	c #0D7EFF",
"M+	c #107FFF",
"N+	c #1280FF",
"O+	c #1380FF",
"P+	c #1180FF",
"Q+	c #0F7EFF",
"R+	c #0C7DFF",
"S+	c #0579FF",
"T+	c #0053E0",
"U+	c #414685",
"V+	c #5A5A5A",
"W+	c #787BB8",
"X+	c #015FDF",
"Y+	c #0089FF",
"Z+	c #005FDF",
"`+	c #404482",
" @	c #505050",
".@	c #4D4D4D",
"+@	c #787CB8",
"@@	c #016CDF",
"#@	c #009BFF",
"$@	c #006BDE",
"%@	c #3E4281",
"&@	c #454545",
"*@	c #4C4C4C",
"=@	c #666666",
"-@	c #6266A2",
";@	c #0179DF",
">@	c #01AEFF",
",@	c #0076DE",
"'@	c #0F1464",
")@	c #121212",
"!@	c #4F4F4F",
"~@	c #5C5C5C",
"{@	c #6A6A6A",
"]@	c #727272",
"^@	c #777777",
"/@	c #787878",
"(@	c #4A4E8A",
"_@	c #0785DF",
":@	c #0ABEFF",
"<@	c #0681DD",
"[@	c #000668",
"}@	c #0C157F",
"|@	c #0F91DF",
"1@	c #18CFFF",
"2@	c #0F8BDC",
"3@	c #01076C",
"4@	c #189CDF",
"5@	c #24DFFF",
"6@	c #1794DC",
"7@	c #01066C",
"8@	c #21A8DF",
"9@	c #30F0FF",
"0@	c #1F9EDB",
"a@	c #2191D2",
"b@	c #1F88CD",
"c@	c #01066B",
"                        . . + @ + . .                           ",
"            # $ % & * = - ; > , ' ) ! ~ { ] ^ / (               ",
"        _ : < [ } | ^ 1 2 2 3 1 4 ^ 5 5 4 6 7 8 9 0 a           ",
"    b c < d 1 e f f f g h a i 3 j k l | { m & n ] o 6 p e       ",
"  q r ! _ f f f f f s t u v 2 8 5 w x y m d z } A A & B { h     ",
"  C D E f f f f f f F $ G B 6 4 k l H 9 & z I : J J * } $ m     ",
"  K L / f f f f f f F $ G M 3 j % 0 N m ~ } : ) , ' O } 2 *     ",
"  h P Q 3 f f f f f E / a i 3 j % 0 y n R I O , S T & H U F     ",
"  5 p V W X H B F f E / a i 3 j % 0 y n R I : R { z [ A y ~     ",
"  % > Y Z ` Z  ...D } { % ^ ^ 5 k % K N & ! S U P C n +.@.y     ",
"  % ; #.$.$.W %.0 m A ) ; [ &.*.=.-.;.>.>.,.'.).!.~.@.; ; H     ",
"  G > {.].].].^.> S /./.' (._.:.<.<.[.[.[.[.}.|.1.2.3.; ' $     ",
"  4.2 r #.Y Y #.; ; ; ; ; 5.6.7.7.8.9.9.9.0.0.0.a.b.c.] 4 4     ",
"  3 _ A d...e.V ; ; ; ; ; f.g.h.h.h.i.j.j.j.k.l.l.m.n.d l k     ",
"  k ) D /.: ) T ^ 9 z ! o.p.q.1.1.r.r.r.s.s.t.u.v.w.x.4 @.R     ",
"  % ; L y.d.> ! z.A.B.u M C.D.E.E.F.F.G.G.H.I.I.J.K.L.D P &     ",
"  ^ ; +.M.y.L N.: ~ { 0 w O.P.Q.Q.R.S.T.T.U.U.U.V.W.X.! ; w     ",
"  Y.! X @.@.@.N.; - Z.Z.- `. +.+.+++++@+@+#+$+$+$+%+&+I w i     ",
"  i / 9 ; d.X d.; *+=+-+-+;+>+,+'+)+)+!+!+!+!+~+~+{+]+^+/+(+    ",
"  _+: 0 3 % R /., :+<+[+}+|+1+2+2+2+3+3+3+4+4+4+5+6+7+8+9+0+a+  ",
"  % - P T ~ % 2 B.b+c+d+e+e+f+g+g+g+h+i+i+j+j+k+k+l+l+m+n+o+p+  ",
"  _+; [ q+r+c > z s+t+u+v+w+x+y+z+z+z+x+x+x+A+A+B+C+D+u+u+E+F+  ",
"  b , [ q+q+q+q+- Z.G+H+I+I+J+K+L+M+N+O+P+Q+R+S+I+I+I+I+T+U+    ",
"  V+z.} c q+q+q+; ; ; W+X+Y+Y+Y+Y+Y+Y+Y+Y+Y+Y+Y+Y+Y+Y+Z+`+ @    ",
"    .@@ 7 9 ) ; - ; ; ; +@@@#@#@#@#@#@#@#@#@#@#@#@#@$@%@&@      ",
"        *@=@q h g i _+x m -@;@>@>@>@>@>@>@>@>@>@>@,@'@)@        ",
"              !@~@{@]@^@/@q (@_@:@:@:@:@:@:@:@:@<@[@            ",
"                              }@|@1@1@1@1@1@1@2@3@              ",
"                                  4@5@5@5@5@6@7@                ",
"                                    8@9@9@0@7@                  ",
"                                      a@b@c@                    ",
"                                                                "};
