/* XPM */
static const char * warning_xpm[] = {
"48 48 303 2",
"  	c grey s Background",
". 	c #000000",
"+ 	c #5F5C39",
"@ 	c #FFF797",
"# 	c #EFE78B",
"$ 	c #5F5C37",
"% 	c #1F1F13",
"& 	c #FFF89C",
"* 	c #FFF899",
"= 	c #FFF694",
"- 	c #1F1E12",
"; 	c #AFAC6F",
"> 	c #FFF99F",
", 	c #FFE862",
"' 	c #FFD827",
") 	c #FFDB31",
"! 	c #AFA65C",
"~ 	c #3F3E29",
"{ 	c #FFFBA5",
"] 	c #FFEF7B",
"^ 	c #FFCE05",
"/ 	c #FFCF08",
"( 	c #FFCF0A",
"_ 	c #FFD92E",
": 	c #3F3D24",
"< 	c #CFCD8A",
"[ 	c #FFFBA7",
"} 	c #FFD726",
"| 	c #FFD00B",
"1 	c #FFD10E",
"2 	c #FFD111",
"3 	c #FFD213",
"4 	c #CFBE57",
"5 	c #6F6F4D",
"6 	c #FFFDAD",
"7 	c #FFEC6F",
"8 	c #FFD10F",
"9 	c #FFD212",
"0 	c #FFD214",
"a 	c #FFD317",
"b 	c #FFD419",
"c 	c #FFD82A",
"d 	c #5F5B35",
"e 	c #11100B",
"f 	c #EFEEA5",
"g 	c #FFFAA4",
"h 	c #FFD41B",
"i 	c #FFD215",
"j 	c #FFD318",
"k 	c #FFD51E",
"l 	c #FFD620",
"m 	c #FFD622",
"n 	c #EFD856",
"o 	c #111009",
"p 	c #8F8E61",
"q 	c #FFE861",
"r 	c #FFD621",
"s 	c #FFD724",
"t 	c #FFD829",
"u 	c #FFDA31",
"v 	c #7F783F",
"w 	c #1F1F14",
"x 	c #FFFCA9",
"y 	c #FFD51D",
"z 	c #FFD725",
"A 	c #FFD828",
"B 	c #FFD92B",
"C 	c #FFD92D",
"D 	c #FFDA2F",
"E 	c #FFE559",
"F 	c #1F1E10",
"G 	c #BFBC7B",
"H 	c #FFE047",
"I 	c #FFD51F",
"J 	c #FFD723",
"K 	c #FFDB34",
"L 	c #FFDC36",
"M 	c #FFDC38",
"N 	c #FFDD3A",
"O 	c #AFA352",
"P 	c #3F3E27",
"Q 	c #FFFAA0",
"R 	c #FFF181",
"S 	c #C5A61C",
"T 	c #1A1603",
"U 	c #1A1604",
"V 	c #1A1605",
"W 	c #1A1606",
"X 	c #C5AD33",
"Y 	c #FFDE3F",
"Z 	c #FFDF41",
"` 	c #FFE452",
" .	c #3F3C20",
"..	c #DFD988",
"+.	c #FFF89D",
"@.	c #FFDD38",
"#.	c #F0CC28",
"$.	c #1A1707",
"%.	c #1A1708",
"&.	c #F0DA57",
"*.	c #FFE046",
"=.	c #FFE148",
"-.	c #FFE149",
";.	c #CFBF5A",
">.	c #6F6C41",
",.	c #FFEB6C",
"'.	c #FFD92A",
").	c #1A1709",
"!.	c #1A180A",
"~.	c #FFE864",
"{.	c #FFE24C",
"].	c #FFE24E",
"^.	c #FFE350",
"/.	c #FFE557",
"(.	c #5F592D",
"_.	c #EFE689",
":.	c #FFF48D",
"<.	c #FFD92C",
"[.	c #1A180B",
"}.	c #FFEC70",
"|.	c #FFE453",
"1.	c #FFE455",
"2.	c #FFE558",
"3.	c #EFDB63",
"4.	c #110F07",
"5.	c #8F894F",
"6.	c #FFF58F",
"7.	c #FFE65B",
"8.	c #FFDD39",
"9.	c #36300E",
"0.	c #1A180C",
"a.	c #444123",
"b.	c #FFEF7A",
"c.	c #FFE65A",
"d.	c #FFE65C",
"e.	c #FFE75E",
"f.	c #FFE75F",
"g.	c #7F7638",
"h.	c #1F1E11",
"i.	c #FFF389",
"j.	c #FFF07E",
"k.	c #FFDB33",
"l.	c #FFDE3E",
"m.	c #534915",
"n.	c #1A180D",
"o.	c #1A190D",
"p.	c #534F2E",
"q.	c #FFEE76",
"r.	c #FFE760",
"s.	c #FFE964",
"t.	c #FFE966",
"u.	c #FFE967",
"v.	c #FFEA6B",
"w.	c #1F1D0D",
"x.	c #BFB563",
"y.	c #FFF286",
"z.	c #FFE044",
"A.	c #FFDC37",
"B.	c #FFDE3D",
"C.	c #FFDF42",
"D.	c #534917",
"E.	c #1A190E",
"F.	c #535031",
"G.	c #FFEA69",
"H.	c #FFEB6D",
"I.	c #FFEB6E",
"J.	c #AFA14A",
"K.	c #3F3C1F",
"L.	c #FFEB6B",
"M.	c #FFDA2E",
"N.	c #FFDB35",
"O.	c #FFDD3B",
"P.	c #6F6321",
"Q.	c #1A190F",
"R.	c #7E7B4E",
"S.	c #FFF284",
"T.	c #FFEC72",
"U.	c #FFED73",
"V.	c #FFED75",
"W.	c #FFEC71",
"X.	c #3F3A19",
"Y.	c #DFD16C",
"Z.	c #FFF07D",
"`.	c #FFDA32",
" +	c #FFE14A",
".+	c #8C7D2B",
"++	c #1A180E",
"@+	c #1A1910",
"#+	c #8C8A5A",
"$+	c #FFEF7D",
"%+	c #FFEE78",
"&+	c #FFEF7C",
"*+	c #DFCD5E",
"=+	c #6F6833",
"-+	c #FFE659",
";+	c #8C7D2D",
">+	c #1A1A11",
",+	c #8C8B5C",
"'+	c #FFF182",
")+	c #FFF07F",
"!+	c #FFF183",
"~+	c #6F6529",
"{+	c #EFDE6B",
"]+	c #FFDA30",
"^+	c #FFE351",
"/+	c #B7A43E",
"(+	c #535030",
"_+	c #535236",
":+	c #535237",
"<+	c #C5C485",
"[+	c #FFF287",
"}+	c #FFF388",
"|+	c #FFF38A",
"1+	c #EFDD6A",
"2+	c #110F05",
"3+	c #8F843D",
"4+	c #FFDF43",
"5+	c #FFDB32",
"6+	c #FFDE40",
"7+	c #FFE24D",
"8+	c #FFE454",
"9+	c #FFEE77",
"0+	c #FFF48C",
"a+	c #FFF590",
"b+	c #FFF48F",
"c+	c #FFF591",
"d+	c #8F8133",
"e+	c #FFEA6A",
"f+	c #FFE34F",
"g+	c #FFE556",
"h+	c #F0D957",
"i+	c #534C1F",
"j+	c #534E28",
"k+	c #F0E276",
"l+	c #FFF592",
"m+	c #FFF695",
"n+	c #FFF798",
"o+	c #FFF796",
"p+	c #FFF693",
"q+	c #1F1C0A",
"r+	c #BFAE4B",
"s+	c #FFDC35",
"t+	c #FFDE3C",
"u+	c #FFE043",
"v+	c #8C7F33",
"w+	c #1A1A12",
"x+	c #8C8958",
"y+	c #FFF89B",
"z+	c #FFF99E",
"A+	c #FFF799",
"B+	c #FFF48E",
"C+	c #BFAD45",
"D+	c #3F3917",
"E+	c #FFD41A",
"F+	c #FFE24B",
"G+	c #8C7F34",
"H+	c #8C8C62",
"I+	c #FFFAA1",
"J+	c #FFFAA3",
"K+	c #3F3812",
"L+	c #DFC950",
"M+	c #FFE75D",
"N+	c #FFE045",
"O+	c #D4C050",
"P+	c #282615",
"Q+	c #28281C",
"R+	c #D4D494",
"S+	c #FFFCAB",
"T+	c #FFFDAC",
"U+	c #DFCA51",
"V+	c #5F5620",
"W+	c #FFDC39",
"X+	c #C5C27D",
"Y+	c #C5C58A",
"Z+	c #FFFEAF",
"`+	c #FFF48B",
" @	c #FFF692",
".@	c #FFFBA6",
"+@	c #FFFAA2",
"@@	c #5F5318",
"#@	c #BFAB3E",
"$@	c #FFE860",
"%@	c #FFEA67",
"&@	c #FFEC6E",
"*@	c #FFFBA4",
"=@	c #FFFCAA",
"-@	c #FFF89A",
";@	c #BFAF4F",
">@	c #BFAA3C",
",@	c #FFD727",
"'@	c #FFD00C",
")@	c #FFE352",
"!@	c #FFED74",
"~@	c #FFF184",
"{@	c #AFA557",
"]@	c #2F2A0E",
"^@	c #AF8E03",
"/@	c #FFDD3C",
"(@	c #FFE965",
"_@	c #FFF285",
":@	c #FFF38B",
"<@	c #AFA659",
"[@	c #2F2D17",
"                                                                                                ",
"                                                                                                ",
"                                                                                                ",
"                                                                                                ",
"                                                                                                ",
"                                                                                                ",
"                                                                                                ",
"                                                                                                ",
"                                                                                                ",
"                                            . . . .                                             ",
"                                          . + @ # $ .                                           ",
"                                          % & * @ = -                                           ",
"                                        . ; > , ' ) ! .                                         ",
"                                        ~ { ] ^ / ( _ :                                         ",
"                                      . < [ } | 1 2 3 4 .                                       ",
"                                      5 6 7 8 9 0 a b c d                                       ",
"                                    e f g h i j h k l m n o                                     ",
"                                  . p 6 q a h k r s ' t u v .                                   ",
"                                  w x @ b y r z A B C D u E F                                   ",
"                                . G { H I J ' B _ u K L M N O .                                 ",
"                                P Q R l S T U V V W W X Y Z `  .                                ",
"                              . ..+.@.z #.U V W $.%.%.&.*.=.-.;..                               ",
"                              >.@ ,.z '.D V $.%.).).!.~.{.].^./.(.                              ",
"                            o _.:.<.c D K W ).).!.[.[.}.|.1./.2.3.4.                            ",
"                          . 5.6.7.t D K 8.9.!.[.0.0.a.b.c.d.e.f.q g..                           ",
"                          h.i.j.' C k.M l.m.0.0.n.o.p.q.r., s.t.u.v.w.                          ",
"                        . x.y.z.B u A.B.C.D.n.o.E.E.F.j.t.G.v.H.I.I.J..                         ",
"                        K.R L.A M.N.O.Z *.P.E.E.Q.Q.R.S.H.7 T.U.V.V.W.X.                        ",
"                      . Y.Z.L B `.M l.z. +.+++Q.@+@+#+$+U.q.%+b.&+&+] *+.                       ",
"                      =+%+-+' _ K O.Z =.].;+++@+@+>+,+'+%+&+)+R '+!+'+&+~+                      ",
"                    4.{+7 A c ]+A.B.z. +^+/+(+_+:+:+<+[+j.'+y.}+i.|+i.[+1+2+                    ",
"                  . 3+7 4+z <.5+8.6+*.7+8+c.9+}+0+a+= j.!+}+0+b+a+c+6.:.y.d+.                   ",
"                  w.e+, I } C K O.C.=.f+g+h+i+[.n.j+k+!+}+:.l+m+@ n+o+p+6.q.q+                  ",
"                . r+t._ r ' M.s+t+u+ +^+2.v+n.w+w+w+x+i.0+l+@ y+z+> +.A+= B+C+.                 ",
"                D+q f+E+r A D L B.z.F+` -+G+@+w+w+w+H+= 6.o+& I+{ { J+z+n+l+] K+                ",
"              . L+M+k h m t ]+A.l.N+{.|.c.O+P+w+w+Q+R+l+c+n+> { S+T+[ I+y+= :.U+.               ",
"              V+2.W+0 h m t ]+A.l.N+{.|.c.q V.X+Y+Z+y+`+ @* > .@6 Z+x +@y+= :.j.@@              ",
"            . #@^.2 0 h m t ]+A.B.z.F+` -+$@%@&@V.&+!+|+c+n+z+*@x =@.@Q -@p+0+y.;@.             ",
"            . >@,@'@3 E+r A D L B.z.F+)@E f.t.H.!@] R }+B+m+-@> +@J+I+& @ c+|+~@{@.             ",
"              ]@^@| 9 b l ' _ N./@C.-.^./.e.(@L.T.%+)+_@:@c+m+* & & y+@  @:.[+<@[@              ",
"                . . . . . . . . . . . . . . . . . . . . . . . . . . . . . . . .                 ",
"                                                                                                ",
"                                                                                                ",
"                                                                                                ",
"                                                                                                ",
"                                                                                                ",
"                                                                                                ",
"                                                                                                "};
