/* XPM */
const char * xbae_xpm[] = {
"38 18 5 1",
"   c lightgrey s Background",
".  c Red s Red",
"X  c Blue s Blue",
"o  c Green s Green",
"O  c Yellow s Yellow",
"                                      ",
" ....           .                     ",
"  ....          .                     ",
"   ....        .                      ",
"    ....      .   XXXXX   oooo  OOOOO ",
"    ....     .    XX  XX oo  oo OO    ",
"     ....   .     XX  XX oo  oo OO    ",
"      ....  .     XX  XX oo  oo OO    ",
"       ... .      XXXXX  oooooo OOOO  ",
"       .. .       XX  XX oo  oo OO    ",
"       . ...      XX  XX oo  oo OO    ",
"      .  ....     XX  XX oo  oo OO    ",
"      .   ....    XX  XX oo  oo OO    ",
"     .    ....    XXXXX  oo  oo OOOOO ",
"    .      ....                       ",
"   .        ....                      ",
"  .          ....                     ",
"                                      "};
