/* XPM */
const char * xmhtml_xpm[] = {
"110 24 2 1",
" 	c lightgrey s Background",
".	c black s Foreground",
"                                                                                                              ",
"                                                                                                              ",
"   ..           ..                       ..          ..   ..............   ..             ..    ..            ",
"   ...         ...                       ..          ..   ..............   ...           ...    ..            ",
"    ...       ...                        ..          ..         ..         ...           ...    ..            ",
"     ..       ..                         ..          ..         ..         ....         ....    ..            ",
"      ..     ..                          ..          ..         ..         ....         ....    ..            ",
"      ...   ...      ..  ...   ....      ..          ..         ..         .. ..       .. ..    ..            ",
"       ... ...       ........ ......     ..          ..         ..         .. ..       .. ..    ..            ",
"        .....        ...   ....   ...    ..          ..         ..         .. ..       .. ..    ..            ",
"         ...         ..     ..     ..    ..............         ..         ..  ..     ..  ..    ..            ",
"         ...         ..     ..     ..    ..............         ..         ..  ..     ..  ..    ..            ",
"        .....        ..     ..     ..    ..          ..         ..         ..  ..     ..  ..    ..            ",
"       ... ...       ..     ..     ..    ..          ..         ..         ..   ..   ..   ..    ..            ",
"       ..   ..       ..     ..     ..    ..          ..         ..         ..   ..   ..   ..    ..            ",
"      ...   ...      ..     ..     ..    ..          ..         ..         ..   ..   ..   ..    ..            ",
"     ...     ...     ..     ..     ..    ..          ..         ..         ..    .. ..    ..    ..            ",
"     ..       ..     ..     ..     ..    ..          ..         ..         ..    .. ..    ..    ..            ",
"    ..         ..    ..     ..     ..    ..          ..         ..         ..    .. ..    ..    ..            ",
"   ...         ...   ..     ..     ..    ..          ..         ..         ..     ...     ..    ...........   ",
"   ..           ..   ..     ..     ..    ..          ..         ..         ..     ...     ..    ...........   ",
"                                                                                                              ",
"                                                                                                              ",
"                                                                                                              "};
